<svg xmlns="http://www.w3.org/2000/svg" xmlns:xlink="http://www.w3.org/1999/xlink" xmlns:lucid="lucid" width="1150" height="760"><g transform="translate(-200 -20)" lucid:page-tab-id="0_0"><path d="M620 46c0-3.3 2.7-6 6-6h468c3.3 0 6 2.7 6 6v708c0 3.3-2.7 6-6 6H626c-3.3 0-6-2.7-6-6z" fill="#c1e4f7" fill-opacity=".3"/><path d="M657.2 40h31.2m15.6 0h31.2m15.6 0H782m15.6 0h31.2m15.6 0h31.2m15.6 0h31.2m15.6 0h31.2m15.6 0h31.2m15.6 0h31.2m15.6 0h15.6l3.03.82 2.15 2.15.82 3.03v14.75m0 14.75V105m0 14.75v29.5m0 14.75v29.5m0 14.75v29.5m0 14.75V282m0 14.75v29.5m0 14.75v29.5m0 14.75v29.5m0 14.75V459m0 14.75v29.5m0 14.75v29.5m0 14.75v29.5m0 14.75V636m0 14.75v29.5m0 14.75v29.5m0 14.75V754l-.82 3.03-2.15 2.15-3.03.82h-15.6m-15.6 0h-31.2m-15.6 0h-31.2m-15.6 0H938m-15.6 0h-31.2m-15.6 0h-31.2m-15.6 0h-31.2m-15.6 0h-31.2m-15.6 0H704m-15.6 0h-31.2m-15.6 0H626l-3.03-.82-2.15-2.15L620 754v-14.75m0-14.75V695m0-14.75v-29.5m0-14.75v-29.5m0-14.75v-29.5m0-14.75V518m0-14.75v-29.5m0-14.75v-29.5m0-14.75v-29.5m0-14.75V341m0-14.75v-29.5m0-14.75v-29.5m0-14.75v-29.5m0-14.75V164m0-14.75v-29.5m0-14.75V75.5m0-14.75V46l.82-3.03 2.15-2.15L626 40h15.6" stroke="#5e5e5e" stroke-width="3" fill="none"/><path d="M279.75 370.06c0 10.9-8.84 19.75-19.75 19.75-10.9 0-19.75-8.83-19.75-19.74 0-10.9 8.84-19.75 19.75-19.75 10.9 0 19.75 8.85 19.75 19.76z" stroke="#333" stroke-width="4" fill="#fff"/><path d="M260 389.8v50.3c0 2.77 1.2 6.9 2.67 9.23L300 508.3m-40-63.2l-40 63.2m0-98.74h80" stroke="#333" stroke-width="4" fill="none"/><path d="M220 355.3c0-2.75 2.24-5 5-5h70c2.76 0 5 2.25 5 5v170c0 2.77-2.24 5-5 5h-70c-2.76 0-5-2.23-5-5z" fill="none"/><use xlink:href="#a" transform="matrix(1,0,0,1,140,508.3082824808348) translate(95.35802469135803 14.888888888888888)"/><path d="M600 305c0 24.85-26.86 45-60 45s-60-20.15-60-45 26.86-45 60-45 60 20.15 60 45z" stroke="#fff" stroke-width="2" fill="#19967d"/><use xlink:href="#b" transform="matrix(1,0,0,1,480,260) translate(11.997187499999997 42.34375)"/><use xlink:href="#c" transform="matrix(1,0,0,1,480,260) translate(38.668194444444445 60.12152777777778)"/><path d="M600 548.57c0 24.86-26.86 45-60 45s-60-20.14-60-45c0-24.85 26.86-45 60-45s60 20.15 60 45z" stroke="#fff" stroke-width="2" fill="#19967d"/><use xlink:href="#d" transform="matrix(1,0,0,1,480,503.5742918009379) translate(22.665590277777767 42.34375)"/><use xlink:href="#e" transform="matrix(1,0,0,1,480,503.5742918009379) translate(38.668194444444445 60.12152777777778)"/><path d="M301 409.06h76.5c6.63 0 12-5.37 12-12V317c0-6.63 5.37-12 12-12h75.68" stroke="#333" stroke-width="2" fill="none"/><path d="M301.03 410.06H300v-2h1.03z" fill="#333"/><path d="M459.82 315.18l17.2-10.18-17.2-10.18M301 409.06h76.5c6.63 0 12 5.37 12 12v115.5c0 6.64 5.37 12 12 12h75.68" stroke="#333" stroke-width="2" fill="none"/><path d="M301.03 410.06H300v-2h1.03z" fill="#333"/><path d="M459.82 558.76l17.2-10.2-17.2-10.17" stroke="#333" stroke-width="2" fill="none"/><path d="M820 388c0-4.42 3.58-8 8-8h124c4.42 0 8 3.58 8 8v74c0 4.42-3.58 8-8 8H828c-4.42 0-8-3.58-8-8z" stroke="#333" stroke-width="2" fill="#489bfc"/><use xlink:href="#f" transform="matrix(1,0,0,1,820.0000000000001,380) translate(22.64999999999999 48.15)"/><use xlink:href="#g" transform="matrix(1,0,0,1,820.0000000000001,380) translate(54.599999999999994 48.15)"/><use xlink:href="#h" transform="matrix(1,0,0,1,820.0000000000001,380) translate(65.55 48.15)"/><path d="M820 154.44c0-4.42 3.58-8 8-8h124c4.42 0 8 3.58 8 8v74c0 4.42-3.58 8-8 8H828c-4.42 0-8-3.58-8-8z" stroke="#333" stroke-width="2" fill="#489bfc"/><use xlink:href="#i" transform="matrix(1,0,0,1,820.0000000000001,146.43768089066577) translate(50.224999999999994 48.15)"/><path d="M820 563.07c0-4.4 3.58-8 8-8h124c4.42 0 8 3.6 8 8v74c0 4.42-3.58 8-8 8H828c-4.42 0-8-3.58-8-8z" stroke="#333" stroke-width="2" fill="#489bfc"/><use xlink:href="#f" transform="matrix(1,0,0,1,820.0000000000001,555.0742918009379) translate(23.124999999999993 48.15)"/><use xlink:href="#g" transform="matrix(1,0,0,1,820.0000000000001,555.0742918009379) translate(55.074999999999996 48.15)"/><use xlink:href="#j" transform="matrix(1,0,0,1,820.0000000000001,555.0742918009379) translate(66.025 48.15)"/><path d="M604.88 306H602v-2h2.88zm9.6 0h-5.76v-2h5.76zm9.6 0h-5.76v-2h5.76zm9.6 0h-5.76v-2h5.76zm9.6 0h-5.76v-2h5.76zm9.6 0h-5.76v-2h5.76zm9.6 0h-5.76v-2h5.76zm9.6 0h-5.76v-2h5.76zm9.6 0h-5.76v-2h5.76zm9.6 0h-5.76v-2h5.76zm9.65-.37l-2.86.37h-2.95v-2h2.82l2.73-.36zm8.07-5.77l-1.8 2.34-2.34 1.8-1.22-1.6 2.13-1.63 1.64-2.13zm2-6.8l-.37 2.87-2-.26.37-2.74V290h2zm0-7.03h-2v-5.97h2zm0-9.95h-2v-5.97h2zm0-9.95h-2v-5.97h2zm0-9.95h-2v-5.97h2zm0-9.95h-2v-5.97h2zm0-9.95h-2v-5.97h2zm0-9.95h-2v-5.97h2zm0-9.96h-2v-5.97h2zm0-12.87v2.92h-2v-3.05l.15-1.13h2.02zm5.36-9.47l-1.04.8v-2.16zm8.5-1.6h-2.8l-2.73.37-.26-2 2.87-.36h2.92zm9.5 0h-5.7v-2h5.7zm9.53 0h-5.72v-2h5.7zm9.5 0h-5.7v-2h5.7zm9.53 0h-5.7v-2h5.7zm9.52 0h-5.7v-2h5.7zm9.5 0h-5.7v-2h5.7zm9.53 0h-5.7v-2h5.7zm9.52 0h-5.7v-2h5.7zm9.52 0h-5.7v-2h5.7zm6.66 0h-2.85v-2h2.85z" fill="#333"/><path d="M602.03 306h-1.07l.04-1-.03-1h1.06zM819 191.44l-18.67 11.04-1.02-1.72 15.77-9.32-15.76-9.32 1.03-1.72z" fill="#333"/><use xlink:href="#k" transform="matrix(1,0,0,1,705.3183946772774,180.63768089066576) translate(0.004999999999999893 14.4)"/><path d="M817.18 399.77h-2.88v-2h2.88zm-6.72 0h-5.76v-2h5.76zm-9.6 0h-5.75v-2h5.76zm-9.6 0h-5.75v-2h5.77zm-9.6 0h-5.75v-2h5.77zm-9.6 0h-5.75v-2h5.77zm-19.6 0h-5.35v-2h5.36zm-9.2 0h-5.75v-2h5.77zm-9.6 0h-5.74v-2h5.75zm-9.58 0h-5.76v-2h5.76zm-9.6 0h-5.76v-2h5.76zm-12.4-2h2.8v2h-2.95l-2.86-.37.26-1.98zm60.4 2h-.02v-2zm-68.25-5.22l2.13 1.63-1.22 1.6-2.34-1.8-1.8-2.35 1.6-1.22zM691 386.7l.36 2.74-2 .26-.36-2.86v-3.06h2zm0-6.9h-2v-5.98h2zm0-9.97h-2v-5.98h2zm0-9.97h-2v-5.98h2zm0-9.97h-2v-6h2zm0-9.97h-2v-5.98h2zm0-9.97h-2v-5.98h2zm0-13.03V320h-2v-2.93l-.36-2.74 2-.26zm-3.8-9.13l1.8 2.34-1.6 1.22-1.63-2.13-2.13-1.64 1.22-1.6zm-6.27-3.43l-.26 2-2.74-.37h-2.78v-2h2.92zm-9.58 1.63h-5.7v-2h5.7zm-9.5 0h-5.7v-2h5.7zm-9.5 0h-5.7v-2h5.7zm-9.5 0h-5.7v-2h5.7zm-9.5 0h-5.7v-2h5.7zm-9.5 0h-5.7v-2h5.7zm-9.5 0h-5.7v-2h5.7zm-9.5 0H602v-2h2.85z" fill="#333"/><path d="M819 398.77l-18.67 11.05-1.02-1.72 15.77-9.33-15.76-9.32 1.03-1.72zM602.03 306h-1.07l.04-1-.03-1h1.06z" fill="#333"/><use xlink:href="#l" transform="matrix(1,0,0,1,752.4592282040397,387.9749699859692) translate(0.004999999999999893 14.4)"/><path d="M817.18 579.38h-2.88v-2h2.88zm-6.72 0h-5.76v-2h5.76zm-9.6 0h-5.75v-2h5.76zm-9.6 0h-5.75v-2h5.77zm-9.6 0h-5.75v-2h5.77zm-9.6 0h-5.75v-2h5.77zm-19.2 0h-5.75v-2h5.77zm-9.6 0h-5.75v-2h5.77zm-9.6 0h-5.74v-2h5.75zm-9.58 0h-5.76v-2h5.76zm-9.6 0h-5.76v-2h5.76zm-12.4-2h2.8v2h-2.95l-2.86-.37.26-1.98zm-7.85-3.23l2.13 1.64-1.22 1.58-2.34-1.8-1.8-2.34 1.6-1.22zm-3.23-7.83l.36 2.73-2 .26-.36-2.85v-3.06h2zm0-6.92h-2v-6h2zm0-9.98h-2v-5.98h2zm0-9.97h-2v-6h2zm0-9.98h-2v-5.98h2zm0-9.97h-2v-6h2zm0-9.98h-2v-5.98h2zm0-9.97h-2v-6h2zm0-9.98h-2v-5.98h2zm0-9.97h-2v-6h2zm0-9.98h-2v-5.98h2zm0-9.97h-2v-6h2zm0-9.98h-2v-5.98h2zm0-9.97h-2v-6h2zm0-9.98h-2v-5.98h2zm0-9.97h-2v-6h2zm0-9.98h-2v-6h2zm0-9.98h-2v-6h2zm0-9.98h-2v-6h2zm0-9.98h-2v-5.98h2zm0-9.97h-2v-6h2zm0-9.98h-2v-6h2zm0-9.98h-2v-6h2zm0-9.98h-2v-5.98h2zm0-9.97h-2v-6h2zm0-13.04V320h-2v-2.93l-.36-2.74 2-.26zm-3.8-9.13l1.8 2.34-1.6 1.22-1.63-2.13-2.13-1.64 1.22-1.6zm-6.27-3.43l-.26 2-2.74-.37h-2.78v-2h2.92zm-9.58 1.63h-5.7v-2h5.7zm-9.5 0h-5.7v-2h5.7zm-9.5 0h-5.7v-2h5.7zm-9.5 0h-5.7v-2h5.7zm-9.5 0h-5.7v-2h5.7zm-9.5 0h-5.7v-2h5.7zm-9.5 0h-5.7v-2h5.7zm-9.5 0H602v-2h2.85z" fill="#333"/><path d="M819 578.38l-18.67 11.04-1.02-1.72 15.77-9.32-15.76-9.32 1.03-1.72zM602.03 306h-1.07l.04-1-.03-1h1.06z" fill="#333"/><use xlink:href="#l" transform="matrix(1,0,0,1,753.5818164603413,567.5819124657596) translate(0.004999999999999893 14.4)"/><path d="M604.8 549.57H602v-2h2.8zm9.33 0h-5.6v-2h5.6zm9.34 0h-5.6v-2h5.6zm9.33 0h-5.6v-2h5.6zm9.33 0h-5.6v-2h5.6zm9.34 0h-5.6v-2h5.6zm9.46-.37l-2.86.37h-2.87v-2h2.73l2.74-.35zm8.07-5.77l-1.8 2.34-2.34 1.8-1.22-1.6 2.13-1.62 1.64-2.14zm2-6.8l-.37 2.87-2-.26.37-2.73v-2.83h2zm0-6.84h-2v-5.83h2zm0-9.7h-2v-5.82h2zm0-9.7h-2v-5.82h2zm0-9.7h-2v-5.8h2zm0-9.7h-2v-5.8h2zm0-9.68h-2v-5.82h2zm0-9.7h-2v-5.8h2zm.36-15.26l-.36 2.73v2.83h-2v-2.97l.37-2.86zm5-6.75l-2.13 1.65-1.64 2.13-1.6-1.22 1.8-2.34 2.34-1.8zm8.54-1.58h-2.83l-2.74.36-.26-1.98 2.86-.38h2.97zm9.65 0h-5.8v-2h5.8zm9.66 0h-5.8v-2h5.8zm9.66 0h-5.8v-2h5.8zm9.66 0h-5.8v-2h5.8zm9.66 0h-5.8v-2h5.8zm9.65 0h-5.8v-2h5.8zm9.66 0h-5.8v-2h5.8zm19.3 0H766v-2h5.8zm9.66 0h-5.8v-2h5.8zm9.65 0h-5.78v-2h5.8zm9.67 0h-5.8v-2h5.8zm9.65 0h-5.8v-2h5.8zm6.76 0h-2.9v-2h2.9z" fill="#333"/><path d="M602.03 549.57h-1.07l.04-1-.03-1h1.06zM819 447.02l-18.67 11.04-1.02-1.72 15.77-9.32-15.76-9.32 1.03-1.72z" fill="#333"/><use xlink:href="#k" transform="matrix(1,0,0,1,755.8297937802043,436.22226440237375) translate(0.004999999999999893 14.4)"/><path d="M682.07 625.63h2.83v2h-2.97l-2.86-.38.26-1.98zm12.48 2h-5.8v-2h5.8zm9.66 0h-5.8v-2h5.8zm9.66 0h-5.8v-2h5.8zm9.66 0h-5.8v-2h5.8zm9.66 0h-5.8v-2h5.8zm19.3 0h-5.8v-2h5.8zm9.66 0h-5.8v-2h5.8zm9.66 0H766v-2h5.8zm9.66 0h-5.8v-2h5.8zm9.65 0h-5.78v-2h5.8zm9.67 0h-5.8v-2h5.8zm9.65 0h-5.8v-2h5.8zm6.76 0h-2.9v-2h2.9zm-142.95-5.23l2.13 1.64-1.22 1.58-2.34-1.8-1.8-2.33 1.6-1.23zm-3.23-7.84l.36 2.74-2 .25-.36-2.86v-3.3h2zm0-7.5h-2v-6.5h2zm0-10.8h-2v-6.5h2zm0-10.82h-2v-6.5h2zm0-10.8h-2v-6.5h2zm0-14.13v3.32h-2v-3.18l-.36-2.73 2-.25zm-3.8-9.12l1.8 2.34-1.6 1.2-1.63-2.12-2.13-1.63 1.22-1.6zm-6.27-3.43l-.26 1.98-2.74-.36h-2.73v-2h2.87zm-56.13 1.62H602v-2h2.8zm9.33 0h-5.6v-2h5.6zm9.34 0h-5.6v-2h5.6zm9.33 0h-5.6v-2h5.6zm9.33 0h-5.6v-2h5.6zm9.34 0h-5.6v-2h5.6z" fill="#333"/><path d="M602.03 549.57h-1.07l.04-1-.03-1h1.06zM819 626.63l-18.67 11.04-1.02-1.72 15.77-9.32-15.76-9.32 1.03-1.7z" fill="#333"/><use xlink:href="#l" transform="matrix(1,0,0,1,735.9092207759476,615.829206882164) translate(0.004999999999999893 14.4)"/><path d="M836.18 126.94h-2v-18.8h2z" fill="#333"/><path fill="#333"/><path d="M835.18 142.2l-4.63-14.26h9.27z" fill="#333"/><path d="M835.18 145.44l-6-18.5h12zm-3.26-16.5l3.26 10.03 3.26-10.03z" fill="#333"/><use xlink:href="#m" transform="matrix(1,0,0,1,781.0536330947299,91.86666666666667) translate(0.005000000000002558 10.844444444444445)"/><use xlink:href="#n" transform="matrix(1,0,0,1,781.0536330947299,91.86666666666667) translate(70.68216049382715 10.844444444444445)"/><path d="M938.18 126.94h-2v-58.8h2z" fill="#333"/><path fill="#333"/><path d="M937.18 142.2l-4.64-14.26h9.27z" fill="#333"/><path d="M937.18 145.44l-6.02-18.5h12.03zm-3.26-16.5l3.26 10.03 3.25-10.03z" fill="#333"/><use xlink:href="#o" transform="matrix(1,0,0,1,878.9247589532384,51.86666666666667) translate(0.005000000000002558 10.844444444444445)"/><use xlink:href="#p" transform="matrix(1,0,0,1,878.9247589532384,51.86666666666667) translate(75.91611111111109 10.844444444444445)"/><path d="M821.55 339.96l.5 2.9 1.32 2.4 2.02 1.86 2.55 1.12 2.2.27 3.34.58 2.98 1.65 2.3 2.5 1.36 3.13.3 2.53v1.6h-2V359l-.25-2.1-1.13-2.56-1.85-2.02-2.4-1.32-2.97-.5-2.44-.3-3.12-1.38-2.5-2.3-1.65-3-.58-3.4v-7.6h2z" fill="#333"/><path fill="#333"/><path d="M839.45 375.76l-4.63-14.26h9.27z" fill="#333"/><path d="M839.45 379l-6-18.5h12zm-3.26-16.5l3.25 10.03 3.26-10.03z" fill="#333"/><use xlink:href="#q" transform="matrix(1,0,0,1,740.6846357346357,316.2448664838498) translate(0.0049999999999954525 10.844444444444445)"/><use xlink:href="#r" transform="matrix(1,0,0,1,740.6846357346357,316.2448664838498) translate(42.06487654320986 10.844444444444445)"/><path d="M971.33 317.57l-.44 3.3-1.3 3.13-2.07 2.7-2.7 2.07-3.13 1.3-3.3.43h-16.44l-2.92.38-2.64 1.1-2.28 1.75-1.76 2.28-1.1 2.65-.37 2.92v18.93h-2v-19.07l.42-3.3 1.3-3.13 2.07-2.7 2.7-2.07 3.12-1.3 3.3-.43h16.44l2.92-.38 2.63-1.1 2.3-1.75 1.75-2.28 1.1-2.65.38-2.92v-9.3h2z" fill="#333"/><path fill="#333"/><path d="M929.9 375.76l-4.64-14.26h9.27z" fill="#333"/><path d="M929.9 379l-6.02-18.5h12.02zm-3.27-16.5l3.26 10.03 3.25-10.03z" fill="#333"/><use xlink:href="#s" transform="matrix(1,0,0,1,901.3263920852739,291.8666666666667) translate(0.0049999999999954525 10.844444444444445)"/><use xlink:href="#t" transform="matrix(1,0,0,1,901.3263920852739,291.8666666666667) translate(70.34327160493827 10.844444444444445)"/><path d="M890 238.44v3.8c0 6.63 5.37 12 12 12h245.18" stroke="#333" stroke-width="2" fill="none"/><path d="M891 238.46h-2v-1.02h2z" fill="#333"/><path d="M1129.82 264.42l17.22-10.18-17.22-10.18M962 425h266c6.63 0 12 5.37 12 12v47" stroke="#333" stroke-width="2" fill="none"/><path d="M962.03 426H961v-2h1.03z" fill="#333"/><path d="M1229.82 466.65l10.18 17.22 10.18-17.22M962 600.07h266c6.63 0 12-5.37 12-12v-27.6" stroke="#333" stroke-width="2" fill="none"/><path d="M962.03 601.07H961v-2h1.03z" fill="#333"/><path d="M1250.18 577.85L1240 560.63l-10.18 17.22M761 700h67.56c6.63 0 12-5.37 12-12v-23.42M761.03 700H760" stroke="#333" stroke-width="2" fill="none"/><path d="M840.56 649.3l4.64 14.28h-9.27z" stroke="#333" stroke-width="2" fill="#333"/><use xlink:href="#u" transform="matrix(1,0,0,1,767.9465869041472,679.7333333333333) translate(0.004999999999999005 10.844444444444445)"/><path d="M891 729.68h-2v-65.1h2z" fill="#333"/><path fill="#333"/><path d="M894.64 663.58h-9.28L890 649.3z" fill="#333"/><path d="M896 664.58h-12l6-18.5zm-9.26-2h6.52L890 652.55z" fill="#333"/><use xlink:href="#s" transform="matrix(1,0,0,1,816.479938271605,729.6828985184053) translate(0.0049999999999954525 10.844444444444445)"/><use xlink:href="#v" transform="matrix(1,0,0,1,816.479938271605,729.6828985184053) translate(70.34327160493827 10.844444444444445)"/><path d="M1147.18 685.42H1067c-6.63 0-12-5.38-12-12v-61.35c0-6.62-5.37-12-12-12h-81" stroke="#333" stroke-width="2" fill="none"/><path d="M1129.82 695.6l17.22-10.18-17.22-10.18" stroke="#333" stroke-width="2" fill="none"/><path d="M962.03 601.07H961v-2h1.03z" fill="#333"/><path d="M1150 226.82c0-4.42 3.58-8 8-8h164c4.42 0 8 3.58 8 8v54.83c0 4.42-3.58 8-8 8h-164c-4.42 0-8-3.58-8-8z" stroke="#333" stroke-width="2" fill="#b391b5"/><g><use xlink:href="#w" transform="matrix(1,0,0,1,1150,218.82122054093958) translate(42.099999999999994 27.7125)"/><use xlink:href="#x" transform="matrix(1,0,0,1,1150,218.82122054093958) translate(38.599999999999994 49.3125)"/></g><path d="M1150 494.83c0-4.42 3.58-8 8-8h164c4.42 0 8 3.58 8 8v54.84c0 4.4-3.58 8-8 8h-164c-4.42 0-8-3.6-8-8z" stroke="#333" stroke-width="2" fill="#b391b5"/><g><use xlink:href="#y" transform="matrix(1,0,0,1,1150,486.8331135726253) translate(52.099999999999994 27.7125)"/><use xlink:href="#x" transform="matrix(1,0,0,1,1150,486.8331135726253) translate(38.599999999999994 49.3125)"/></g><path d="M1150 658c0-4.42 3.58-8 8-8h164c4.42 0 8 3.58 8 8v54.83c0 4.42-3.58 8-8 8h-164c-4.42 0-8-3.58-8-8z" stroke="#333" stroke-width="2" fill="#b391b5"/><g><use xlink:href="#z" transform="matrix(1,0,0,1,1150,649.9999999999999) translate(51.10499999999999 14.4)"/><use xlink:href="#A" transform="matrix(1,0,0,1,1150,649.9999999999999) translate(40.14999999999999 36)"/><use xlink:href="#B" transform="matrix(1,0,0,1,1150,649.9999999999999) translate(54.625 57.6)"/><use xlink:href="#C" transform="matrix(1,0,0,1,1150,649.9999999999999) translate(81.525 57.6)"/></g><defs><path fill="#333" d="M62-99C39-31 123 0 170-40s38-139 58-208h34C234-144 253 4 115 4 49 4 18-43 31-112l26-136h34" id="D"/><path fill="#333" d="M194-120c59 52 2 134-86 124-53-6-90-18-98-63l31-7c8 30 29 43 70 43 46 0 84-17 71-62-32-43-135-20-137-98-3-89 178-90 191-16l-30 9c-8-48-127-53-127 5 0 53 81 35 115 65" id="E"/><path fill="#333" d="M11 0l48-248h184l-5 28H87l-15 79h140l-5 27H67L50-27h158l-5 27H11" id="F"/><path fill="#333" d="M249-183c0 48-29 72-75 77L221 0h-36l-43-103H65L45 0H11l48-248c83 2 190-17 190 65zm-34 3c0-55-74-39-127-41l-18 92c63-1 145 13 145-51" id="G"/><g id="a"><use transform="matrix(0.04938271604938272,0,0,0.04938271604938272,0,0)" xlink:href="#D"/><use transform="matrix(0.04938271604938272,0,0,0.04938271604938272,12.790123456790125,0)" xlink:href="#E"/><use transform="matrix(0.04938271604938272,0,0,0.04938271604938272,24.641975308641978,0)" xlink:href="#F"/><use transform="matrix(0.04938271604938272,0,0,0.04938271604938272,36.49382716049383,0)" xlink:href="#G"/></g><path fill="#fff" d="M615-1370c385 0 542 273 542 691 0 230-47 404-140 522S790 20 615 20C231 20 72-262 72-679c0-419 158-691 543-691zM797-330c77-133 78-564 0-695-44-73-101-113-182-113s-139 40-183 114c-79 133-78 560 0 694 45 77 102 118 183 118s138-41 182-118" id="H"/><path fill="#fff" d="M616-1349c316 3 526 118 526 426 0 301-201 442-514 447H431V0H136v-1349h480zm-25 646c164 1 254-62 254-215 0-157-99-200-262-202H431v417h160" id="I"/><path fill="#fff" d="M137 0v-1349h968v228H432v324h612v228H432v341h714V0H137" id="J"/><path fill="#fff" d="M1157-949c0 209-118 316-279 368L1227 0H895L605-515H432V0H137v-1349h494c317-2 526 111 526 400zM608-744c158 1 248-51 252-193 5-207-223-184-428-183v376h176" id="K"/><path fill="#fff" d="M1229 0H935l-92-330H387L295 0H0l443-1349h344zM615-1167c-46 213-110 412-166 615h332c-56-204-119-401-166-615" id="L"/><path fill="#fff" d="M762-1121V0H467v-1121H61v-228h1107v228H762" id="M"/><path fill="#fff" d="M157-1349h916v228H762v893h311V0H157v-228h311v-893H157v-228" id="N"/><path fill="#fff" d="M865-312c-44-312-23-686-28-1037h257V0H748L364-1010c44 304 24 668 28 1010H135v-1349h337" id="O"/><g id="b"><use transform="matrix(0.008680555555555556,0,0,0.008680555555555556,0,0)" xlink:href="#H"/><use transform="matrix(0.008680555555555556,0,0,0.008680555555555556,10.668402777777779,0)" xlink:href="#I"/><use transform="matrix(0.008680555555555556,0,0,0.008680555555555556,21.336805555555557,0)" xlink:href="#J"/><use transform="matrix(0.008680555555555556,0,0,0.008680555555555556,32.005208333333336,0)" xlink:href="#K"/><use transform="matrix(0.008680555555555556,0,0,0.008680555555555556,42.673611111111114,0)" xlink:href="#L"/><use transform="matrix(0.008680555555555556,0,0,0.008680555555555556,53.34201388888889,0)" xlink:href="#M"/><use transform="matrix(0.008680555555555556,0,0,0.008680555555555556,64.01041666666667,0)" xlink:href="#N"/><use transform="matrix(0.008680555555555556,0,0,0.008680555555555556,74.67881944444446,0)" xlink:href="#H"/><use transform="matrix(0.008680555555555556,0,0,0.008680555555555556,85.34722222222223,0)" xlink:href="#O"/></g><path fill="#fff" d="M305-1169c27 366 9 780 14 1169H99v-1349h347c49 189 108 371 150 564 12 56 15 107 23 166 33-270 117-487 176-730h335V0H908c5-390-13-801 16-1169-52 285-130 541-199 809H507c-70-267-148-525-202-809" id="P"/><path fill="#fff" d="M496-1349c439 0 656 222 653 664C1146-265 969 0 556 0H135v-1349h361zm36 1121c245-7 319-187 320-457 1-273-91-439-361-436h-61v893h102" id="Q"/><g id="c"><use transform="matrix(0.008680555555555556,0,0,0.008680555555555556,0,0)" xlink:href="#P"/><use transform="matrix(0.008680555555555556,0,0,0.008680555555555556,10.668402777777779,0)" xlink:href="#H"/><use transform="matrix(0.008680555555555556,0,0,0.008680555555555556,21.336805555555557,0)" xlink:href="#Q"/><use transform="matrix(0.008680555555555556,0,0,0.008680555555555556,32.005208333333336,0)" xlink:href="#J"/></g><path fill="#fff" d="M761-556V0H467v-556L3-1349h309l300 566 304-566h309" id="R"/><g id="d"><use transform="matrix(0.008680555555555556,0,0,0.008680555555555556,0,0)" xlink:href="#I"/><use transform="matrix(0.008680555555555556,0,0,0.008680555555555556,10.668402777777779,0)" xlink:href="#L"/><use transform="matrix(0.008680555555555556,0,0,0.008680555555555556,21.336805555555557,0)" xlink:href="#R"/><use transform="matrix(0.008680555555555556,0,0,0.008680555555555556,32.005208333333336,0)" xlink:href="#P"/><use transform="matrix(0.008680555555555556,0,0,0.008680555555555556,42.673611111111114,0)" xlink:href="#J"/><use transform="matrix(0.008680555555555556,0,0,0.008680555555555556,53.34201388888889,0)" xlink:href="#O"/><use transform="matrix(0.008680555555555556,0,0,0.008680555555555556,64.01041666666667,0)" xlink:href="#M"/></g><g id="e"><use transform="matrix(0.008680555555555556,0,0,0.008680555555555556,0,0)" xlink:href="#P"/><use transform="matrix(0.008680555555555556,0,0,0.008680555555555556,10.668402777777779,0)" xlink:href="#H"/><use transform="matrix(0.008680555555555556,0,0,0.008680555555555556,21.336805555555557,0)" xlink:href="#Q"/><use transform="matrix(0.008680555555555556,0,0,0.008680555555555556,32.005208333333336,0)" xlink:href="#J"/></g><path fill="#333" d="M147 0H94L2-248h55l64 206c17-72 42-137 63-206h54" id="S"/><path fill="#333" d="M230 0l2-204L168 0h-37L68-204 70 0H24v-248h70l56 185 57-185h69V0h-46" id="T"/><g id="f"><use transform="matrix(0.05,0,0,0.05,0,0)" xlink:href="#S"/><use transform="matrix(0.05,0,0,0.05,12,0)" xlink:href="#T"/></g><path fill="#333" d="M14-72v-43h91v43H14" id="U"/><use transform="matrix(0.05,0,0,0.05,0,0)" xlink:href="#U" id="g"/><path fill="#333" d="M67-125c0 53 21 87 73 88 37 1 54-22 65-47l45 17C233-25 199 4 140 4 58 4 20-42 15-125 8-235 124-281 211-232c18 10 29 29 36 50l-46 12c-8-25-30-41-62-41-52 0-71 34-72 86" id="V"/><path fill="#333" d="M199 0l-22-63H83L61 0H9l90-248h61L250 0h-51zm-33-102l-36-108c-10 38-24 72-36 108h72" id="W"/><path fill="#333" d="M240-174c0 40-23 61-54 70L253 0h-59l-57-94H76V0H24v-248c93 4 217-23 216 74zM76-134c48-2 112 12 112-38 0-48-66-32-112-35v73" id="X"/><path fill="#333" d="M24-248c120-7 223 5 221 122C244-46 201 0 124 0H24v-248zM76-40c74 7 117-18 117-86 0-67-45-88-117-82v168" id="Y"/><g id="h"><use transform="matrix(0.05,0,0,0.05,0,0)" xlink:href="#V"/><use transform="matrix(0.05,0,0,0.05,12.950000000000001,0)" xlink:href="#W"/><use transform="matrix(0.05,0,0,0.05,25.900000000000002,0)" xlink:href="#X"/><use transform="matrix(0.05,0,0,0.05,38.85,0)" xlink:href="#Y"/></g><g id="i"><use transform="matrix(0.05,0,0,0.05,0,0)" xlink:href="#X"/><use transform="matrix(0.05,0,0,0.05,12.600000000000001,0)" xlink:href="#S"/><use transform="matrix(0.05,0,0,0.05,24.6,0)" xlink:href="#T"/></g><path fill="#333" d="M169-182c-1-43-94-46-97-3 18 66 151 10 154 114 3 95-165 93-204 36-6-8-10-19-12-30l50-8c3 46 112 56 116 5-17-69-150-10-154-114-4-87 153-88 188-35 5 8 8 18 10 28" id="Z"/><path fill="#333" d="M186 0v-106H76V0H24v-248h52v99h110v-99h50V0h-50" id="aa"/><g id="j"><use transform="matrix(0.05,0,0,0.05,0,0)" xlink:href="#V"/><use transform="matrix(0.05,0,0,0.05,12.950000000000001,0)" xlink:href="#W"/><use transform="matrix(0.05,0,0,0.05,25.900000000000002,0)" xlink:href="#Z"/><use transform="matrix(0.05,0,0,0.05,37.900000000000006,0)" xlink:href="#aa"/></g><path fill="#333" d="M101-251c68 0 85 55 85 127S166 4 100 4C33 4 14-52 14-124c0-73 17-127 87-127zm-1 229c47 0 54-49 54-102s-4-102-53-102c-51 0-55 48-55 102 0 53 5 102 54 102" id="ab"/><use transform="matrix(0.05,0,0,0.05,0,0)" xlink:href="#ab" id="k"/><path fill="#333" d="M27 0v-27h64v-190l-56 39v-29l58-41h29v221h61V0H27" id="ac"/><use transform="matrix(0.05,0,0,0.05,0,0)" xlink:href="#ac" id="l"/><path fill="#333" d="M160-131c35 5 61 23 61 61C221 17 115-2 30 0v-248c76 3 177-17 177 60 0 33-19 50-47 57zm-97-11c50-1 110 9 110-42 0-47-63-36-110-37v79zm0 115c55-2 124 14 124-45 0-56-70-42-124-44v89" id="ad"/><path fill="#333" d="M205 0l-28-72H64L36 0H1l101-248h38L239 0h-34zm-38-99l-47-123c-12 45-31 82-46 123h93" id="ae"/><path fill="#333" d="M233-177c-1 41-23 64-60 70L243 0h-38l-65-103H63V0H30v-248c88 3 205-21 203 71zM63-129c60-2 137 13 137-47 0-61-80-42-137-45v92" id="af"/><path fill="#333" d="M212-179c-10-28-35-45-73-45-59 0-87 40-87 99 0 60 29 101 89 101 43 0 62-24 78-52l27 14C228-24 195 4 139 4 59 4 22-46 18-125c-6-104 99-153 187-111 19 9 31 26 39 46" id="ag"/><path fill="#333" d="M140-251c81 0 123 46 123 126C263-46 219 4 140 4 59 4 17-45 17-125s42-126 123-126zm0 227c63 0 89-41 89-101s-29-99-89-99c-61 0-89 39-89 99S79-25 140-24" id="ah"/><path fill="#333" d="M30-248c118-7 216 8 213 122C240-48 200 0 122 0H30v-248zM63-27c89 8 146-16 146-99s-60-101-146-95v194" id="ai"/><path fill="#333" d="M30 0v-248h187v28H63v79h144v27H63v87h162V0H30" id="aj"/><g id="m"><use transform="matrix(0.03765432098765432,0,0,0.03765432098765432,0,0)" xlink:href="#ad"/><use transform="matrix(0.03765432098765432,0,0,0.03765432098765432,9.037037037037036,0)" xlink:href="#ae"/><use transform="matrix(0.03765432098765432,0,0,0.03765432098765432,18.074074074074073,0)" xlink:href="#af"/><use transform="matrix(0.03765432098765432,0,0,0.03765432098765432,27.82654320987654,0)" xlink:href="#ag"/><use transform="matrix(0.03765432098765432,0,0,0.03765432098765432,37.579012345679004,0)" xlink:href="#ah"/><use transform="matrix(0.03765432098765432,0,0,0.03765432098765432,48.122222222222206,0)" xlink:href="#ai"/><use transform="matrix(0.03765432098765432,0,0,0.03765432098765432,57.87469135802468,0)" xlink:href="#aj"/></g><path fill="#333" d="M185-189c-5-48-123-54-124 2 14 75 158 14 163 119 3 78-121 87-175 55-17-10-28-26-33-46l33-7c5 56 141 63 141-1 0-78-155-14-162-118-5-82 145-84 179-34 5 7 8 16 11 25" id="ak"/><path fill="#333" d="M190 0L58-211 59 0H30v-248h39L202-35l-2-213h31V0h-41" id="al"/><g id="n"><use transform="matrix(0.03765432098765432,0,0,0.03765432098765432,0,0)" xlink:href="#ak"/><use transform="matrix(0.03765432098765432,0,0,0.03765432098765432,9.037037037037036,0)" xlink:href="#ag"/><use transform="matrix(0.03765432098765432,0,0,0.03765432098765432,18.789506172839502,0)" xlink:href="#ae"/><use transform="matrix(0.03765432098765432,0,0,0.03765432098765432,27.82654320987654,0)" xlink:href="#al"/></g><path fill="#333" d="M33 0v-248h34V0H33" id="am"/><path fill="#333" d="M127-220V0H93v-220H8v-28h204v28h-85" id="an"/><path fill="#333" d="M137 0h-34L2-248h35l83 218 83-218h36" id="ao"/><g id="o"><use transform="matrix(0.03765432098765432,0,0,0.03765432098765432,0,0)" xlink:href="#am"/><use transform="matrix(0.03765432098765432,0,0,0.03765432098765432,3.765432098765432,0)" xlink:href="#al"/><use transform="matrix(0.03765432098765432,0,0,0.03765432098765432,13.5179012345679,0)" xlink:href="#ag"/><use transform="matrix(0.03765432098765432,0,0,0.03765432098765432,23.270370370370365,0)" xlink:href="#aj"/><use transform="matrix(0.03765432098765432,0,0,0.03765432098765432,32.3074074074074,0)" xlink:href="#al"/><use transform="matrix(0.03765432098765432,0,0,0.03765432098765432,42.05987654320987,0)" xlink:href="#an"/><use transform="matrix(0.03765432098765432,0,0,0.03765432098765432,50.30617283950616,0)" xlink:href="#am"/><use transform="matrix(0.03765432098765432,0,0,0.03765432098765432,54.07160493827159,0)" xlink:href="#ao"/><use transform="matrix(0.03765432098765432,0,0,0.03765432098765432,63.10864197530863,0)" xlink:href="#aj"/></g><path fill="#333" d="M240 0l2-218c-23 76-54 145-80 218h-23L58-218 59 0H30v-248h44l77 211c21-75 51-140 76-211h43V0h-30" id="ap"/><g id="p"><use transform="matrix(0.03765432098765432,0,0,0.03765432098765432,0,0)" xlink:href="#ap"/><use transform="matrix(0.03765432098765432,0,0,0.03765432098765432,11.258641975308642,0)" xlink:href="#ah"/><use transform="matrix(0.03765432098765432,0,0,0.03765432098765432,21.80185185185185,0)" xlink:href="#ai"/><use transform="matrix(0.03765432098765432,0,0,0.03765432098765432,31.554320987654318,0)" xlink:href="#aj"/></g><g id="q"><use transform="matrix(0.03765432098765432,0,0,0.03765432098765432,0,0)" xlink:href="#ag"/><use transform="matrix(0.03765432098765432,0,0,0.03765432098765432,9.752469135802468,0)" xlink:href="#ae"/><use transform="matrix(0.03765432098765432,0,0,0.03765432098765432,18.789506172839502,0)" xlink:href="#af"/><use transform="matrix(0.03765432098765432,0,0,0.03765432098765432,28.54197530864197,0)" xlink:href="#ai"/></g><path fill="#333" d="M232-93c-1 65-40 97-104 97C67 4 28-28 28-90v-158h33c8 89-33 224 67 224 102 0 64-133 71-224h33v155" id="aq"/><path fill="#333" d="M197 0v-115H63V0H30v-248h33v105h134v-105h34V0h-34" id="ar"/><g id="r"><use transform="matrix(0.03765432098765432,0,0,0.03765432098765432,0,0)" xlink:href="#ae"/><use transform="matrix(0.03765432098765432,0,0,0.03765432098765432,9.037037037037036,0)" xlink:href="#aq"/><use transform="matrix(0.03765432098765432,0,0,0.03765432098765432,18.789506172839502,0)" xlink:href="#an"/><use transform="matrix(0.03765432098765432,0,0,0.03765432098765432,27.035802469135795,0)" xlink:href="#ar"/><use transform="matrix(0.03765432098765432,0,0,0.03765432098765432,36.78827160493826,0)" xlink:href="#aj"/><use transform="matrix(0.03765432098765432,0,0,0.03765432098765432,45.8253086419753,0)" xlink:href="#al"/><use transform="matrix(0.03765432098765432,0,0,0.03765432098765432,55.577777777777776,0)" xlink:href="#an"/><use transform="matrix(0.03765432098765432,0,0,0.03765432098765432,63.82407407407406,0)" xlink:href="#am"/><use transform="matrix(0.03765432098765432,0,0,0.03765432098765432,67.58950617283949,0)" xlink:href="#ag"/><use transform="matrix(0.03765432098765432,0,0,0.03765432098765432,77.34197530864196,0)" xlink:href="#ae"/><use transform="matrix(0.03765432098765432,0,0,0.03765432098765432,85.36234567901234,0)" xlink:href="#an"/><use transform="matrix(0.03765432098765432,0,0,0.03765432098765432,93.60864197530863,0)" xlink:href="#am"/><use transform="matrix(0.03765432098765432,0,0,0.03765432098765432,97.37407407407406,0)" xlink:href="#ah"/><use transform="matrix(0.03765432098765432,0,0,0.03765432098765432,107.91728395061727,0)" xlink:href="#al"/></g><path fill="#333" d="M30-248c87 1 191-15 191 75 0 78-77 80-158 76V0H30v-248zm33 125c57 0 124 11 124-50 0-59-68-47-124-48v98" id="as"/><g id="s"><use transform="matrix(0.03765432098765432,0,0,0.03765432098765432,0,0)" xlink:href="#as"/><use transform="matrix(0.03765432098765432,0,0,0.03765432098765432,9.037037037037036,0)" xlink:href="#af"/><use transform="matrix(0.03765432098765432,0,0,0.03765432098765432,18.789506172839502,0)" xlink:href="#ah"/><use transform="matrix(0.03765432098765432,0,0,0.03765432098765432,29.33271604938271,0)" xlink:href="#ai"/><use transform="matrix(0.03765432098765432,0,0,0.03765432098765432,39.08518518518518,0)" xlink:href="#aq"/><use transform="matrix(0.03765432098765432,0,0,0.03765432098765432,48.83765432098765,0)" xlink:href="#ag"/><use transform="matrix(0.03765432098765432,0,0,0.03765432098765432,58.590123456790124,0)" xlink:href="#an"/></g><path fill="#333" d="M30 0v-248h33v221h125V0H30" id="at"/><g id="t"><use transform="matrix(0.03765432098765432,0,0,0.03765432098765432,0,0)" xlink:href="#ak"/><use transform="matrix(0.03765432098765432,0,0,0.03765432098765432,9.037037037037036,0)" xlink:href="#aj"/><use transform="matrix(0.03765432098765432,0,0,0.03765432098765432,18.074074074074073,0)" xlink:href="#at"/><use transform="matrix(0.03765432098765432,0,0,0.03765432098765432,25.604938271604937,0)" xlink:href="#ag"/><use transform="matrix(0.03765432098765432,0,0,0.03765432098765432,35.35740740740741,0)" xlink:href="#an"/><use transform="matrix(0.03765432098765432,0,0,0.03765432098765432,43.6037037037037,0)" xlink:href="#am"/><use transform="matrix(0.03765432098765432,0,0,0.03765432098765432,47.36913580246913,0)" xlink:href="#ah"/><use transform="matrix(0.03765432098765432,0,0,0.03765432098765432,57.91234567901234,0)" xlink:href="#al"/></g><g id="u"><use transform="matrix(0.03765432098765432,0,0,0.03765432098765432,0,0)" xlink:href="#ag"/><use transform="matrix(0.03765432098765432,0,0,0.03765432098765432,9.752469135802468,0)" xlink:href="#ae"/><use transform="matrix(0.03765432098765432,0,0,0.03765432098765432,18.789506172839502,0)" xlink:href="#ak"/><use transform="matrix(0.03765432098765432,0,0,0.03765432098765432,27.82654320987654,0)" xlink:href="#ar"/></g><g id="v"><use transform="matrix(0.03765432098765432,0,0,0.03765432098765432,0,0)" xlink:href="#ak"/><use transform="matrix(0.03765432098765432,0,0,0.03765432098765432,9.037037037037036,0)" xlink:href="#aj"/><use transform="matrix(0.03765432098765432,0,0,0.03765432098765432,18.074074074074073,0)" xlink:href="#at"/><use transform="matrix(0.03765432098765432,0,0,0.03765432098765432,25.604938271604937,0)" xlink:href="#aj"/><use transform="matrix(0.03765432098765432,0,0,0.03765432098765432,34.641975308641975,0)" xlink:href="#ag"/><use transform="matrix(0.03765432098765432,0,0,0.03765432098765432,44.394444444444446,0)" xlink:href="#an"/><use transform="matrix(0.03765432098765432,0,0,0.03765432098765432,52.64074074074074,0)" xlink:href="#am"/><use transform="matrix(0.03765432098765432,0,0,0.03765432098765432,56.40617283950617,0)" xlink:href="#ah"/><use transform="matrix(0.03765432098765432,0,0,0.03765432098765432,66.94938271604937,0)" xlink:href="#al"/></g><path fill="#333" d="M24 0v-248h52V0H24" id="au"/><path fill="#333" d="M175 0L67-191c6 58 2 128 3 191H24v-248h59L193-55c-6-58-2-129-3-193h46V0h-61" id="av"/><path fill="#333" d="M24 0v-248h195v40H76v63h132v40H76v65h150V0H24" id="aw"/><path fill="#333" d="M136-208V0H84v-208H4v-40h212v40h-80" id="ax"/><g id="w"><use transform="matrix(0.05,0,0,0.05,0,0)" xlink:href="#au"/><use transform="matrix(0.05,0,0,0.05,5,0)" xlink:href="#av"/><use transform="matrix(0.05,0,0,0.05,17.950000000000003,0)" xlink:href="#V"/><use transform="matrix(0.05,0,0,0.05,30.900000000000006,0)" xlink:href="#aw"/><use transform="matrix(0.05,0,0,0.05,42.900000000000006,0)" xlink:href="#av"/><use transform="matrix(0.05,0,0,0.05,55.85,0)" xlink:href="#ax"/><use transform="matrix(0.05,0,0,0.05,66.80000000000001,0)" xlink:href="#au"/><use transform="matrix(0.05,0,0,0.05,71.80000000000001,0)" xlink:href="#S"/><use transform="matrix(0.05,0,0,0.05,83.80000000000001,0)" xlink:href="#aw"/></g><path fill="#333" d="M24 0v-248h52v208h133V0H24" id="ay"/><g id="x"><use transform="matrix(0.05,0,0,0.05,0,0)" xlink:href="#Y"/><use transform="matrix(0.05,0,0,0.05,12.950000000000001,0)" xlink:href="#aw"/><use transform="matrix(0.05,0,0,0.05,24.950000000000003,0)" xlink:href="#ay"/><use transform="matrix(0.05,0,0,0.05,35.900000000000006,0)" xlink:href="#au"/><use transform="matrix(0.05,0,0,0.05,40.900000000000006,0)" xlink:href="#S"/><use transform="matrix(0.05,0,0,0.05,52.900000000000006,0)" xlink:href="#aw"/><use transform="matrix(0.05,0,0,0.05,64.9,0)" xlink:href="#X"/><use transform="matrix(0.05,0,0,0.05,77.85000000000001,0)" xlink:href="#aw"/><use transform="matrix(0.05,0,0,0.05,89.85000000000001,0)" xlink:href="#Y"/></g><path fill="#333" d="M24-248c93 1 206-16 204 79-1 75-69 88-152 82V0H24v-248zm52 121c47 0 100 7 100-41 0-47-54-39-100-39v80" id="az"/><path fill="#333" d="M140-251c80 0 125 45 125 126S219 4 139 4C58 4 15-44 15-125s44-126 125-126zm-1 214c52 0 73-35 73-88 0-50-21-86-72-86-52 0-73 35-73 86s22 88 72 88" id="aA"/><path fill="#333" d="M238-95c0 69-44 99-111 99C63 4 22-25 22-93v-155h51v151c-1 38 19 59 55 60 90 1 49-130 58-211h52v153" id="aB"/><g id="y"><use transform="matrix(0.05,0,0,0.05,0,0)" xlink:href="#az"/><use transform="matrix(0.05,0,0,0.05,12,0)" xlink:href="#X"/><use transform="matrix(0.05,0,0,0.05,24.950000000000003,0)" xlink:href="#aA"/><use transform="matrix(0.05,0,0,0.05,38.95,0)" xlink:href="#aB"/><use transform="matrix(0.05,0,0,0.05,51.900000000000006,0)" xlink:href="#V"/><use transform="matrix(0.05,0,0,0.05,64.85000000000001,0)" xlink:href="#ax"/></g><path fill="#333" d="M67-125c0 54 23 88 75 88 28 0 53-7 68-21v-34h-60v-39h108v91C232-14 192 4 140 4 58 4 20-42 15-125 8-236 126-280 215-234c19 10 29 26 37 47l-47 15c-11-23-29-39-63-39-53 1-75 33-75 86" id="aC"/><g id="z"><use transform="matrix(0.05,0,0,0.05,0,0)" xlink:href="#V"/><use transform="matrix(0.05,0,0,0.05,12.950000000000001,0)" xlink:href="#aa"/><use transform="matrix(0.05,0,0,0.05,25.900000000000002,0)" xlink:href="#W"/><use transform="matrix(0.05,0,0,0.05,38.85,0)" xlink:href="#av"/><use transform="matrix(0.05,0,0,0.05,51.800000000000004,0)" xlink:href="#aC"/><use transform="matrix(0.05,0,0,0.05,65.80000000000001,0)" xlink:href="#aw"/></g><g id="A"><use transform="matrix(0.05,0,0,0.05,0,0)" xlink:href="#X"/><use transform="matrix(0.05,0,0,0.05,12.950000000000001,0)" xlink:href="#aw"/><use transform="matrix(0.05,0,0,0.05,24.950000000000003,0)" xlink:href="#ax"/><use transform="matrix(0.05,0,0,0.05,35.900000000000006,0)" xlink:href="#aB"/><use transform="matrix(0.05,0,0,0.05,48.85000000000001,0)" xlink:href="#X"/><use transform="matrix(0.05,0,0,0.05,61.80000000000001,0)" xlink:href="#av"/><use transform="matrix(0.05,0,0,0.05,74.75000000000001,0)" xlink:href="#aw"/><use transform="matrix(0.05,0,0,0.05,86.75000000000001,0)" xlink:href="#Y"/></g><path fill="#333" d="M67-93c0 74 22 123 53 168H70C40 30 18-18 18-93s22-123 52-168h50c-32 44-53 94-53 168" id="aD"/><path fill="#333" d="M76-208v77h127v40H76V0H24v-248h183v40H76" id="aE"/><g id="B"><use transform="matrix(0.05,0,0,0.05,0,0)" xlink:href="#aD"/><use transform="matrix(0.05,0,0,0.05,5.95,0)" xlink:href="#au"/><use transform="matrix(0.05,0,0,0.05,10.95,0)" xlink:href="#aE"/></g><path fill="#333" d="M146-102V0H94v-102L6-248h54l60 105 60-105h54" id="aF"/><path fill="#333" d="M102-93c0 74-22 123-52 168H0C30 29 54-18 53-93c0-74-22-123-53-168h50c30 45 52 94 52 168" id="aG"/><g id="C"><use transform="matrix(0.05,0,0,0.05,0,0)" xlink:href="#W"/><use transform="matrix(0.05,0,0,0.05,12.950000000000001,0)" xlink:href="#av"/><use transform="matrix(0.05,0,0,0.05,25.900000000000002,0)" xlink:href="#aF"/><use transform="matrix(0.05,0,0,0.05,37.900000000000006,0)" xlink:href="#aG"/></g></defs></g></svg>