<svg xmlns="http://www.w3.org/2000/svg" xmlns:xlink="http://www.w3.org/1999/xlink" xmlns:lucid="lucid" width="1293.71" height="1540"><g transform="translate(-173.86419753086417 1220)" lucid:page-tab-id="0_0"><path d="M988-1200c17.67 0 32 13.43 32 30s-14.33 30-32 30h-96c-17.67 0-32-13.43-32-30s14.33-30 32-30z" stroke="#5e5e5e" stroke-width="3" fill="#999"/><use xlink:href="#a" transform="matrix(1,0,0,1,865.0000000003286,-1195) translate(41.66124131944444 33.7109375)"/><path d="M940-1137.5v39.95" stroke="#5e5e5e" stroke-width="2" fill="none"/><path d="M941-1137.47h-2v-1.03h2z" fill="#5e5e5e"/><path d="M940-1082.28l-4.64-14.27h9.28z" stroke="#5e5e5e" stroke-width="2" fill="#5e5e5e"/><path d="M1113.97-975.7h-64.6v-2h64.6zm61.76 0h-47.1v-2h47.1z" fill="#5e5e5e"/><path d="M1049.4-975.7h-1.2l.2-1.18-.2-.83h1.2zM1191-976.7l-14.27 4.62v-9.27z" fill="#5e5e5e"/><path d="M1194.23-976.7l-18.5 6v-12.02zm-16.5 3.25l10.03-3.26-10.03-3.27z" fill="#5e5e5e"/><use xlink:href="#b" transform="matrix(1,0,0,1,1113.9657140423235,-988.9348204795059) translate(0 19.55078125)"/><path d="M1210.02-1030.1c.85-3.2 4.23-5.8 7.54-5.8H1434c3.3 0 5.3 2.6 4.45 5.8l-28.47 106.77c-.85 3.2-4.23 5.8-7.54 5.8H1186c-3.3 0-5.3-2.6-4.45-5.8z" stroke="#5e5e5e" stroke-width="3" fill="#c7e8ac"/><use xlink:href="#c" transform="matrix(1,0,0,1,1192.0000000003288,-1023.8907477848838) translate(23.988723958333317 32.6171875)"/><use xlink:href="#d" transform="matrix(1,0,0,1,1192.0000000003288,-1023.8907477848838) translate(90.66624131944444 32.6171875)"/><use xlink:href="#e" transform="matrix(1,0,0,1,1192.0000000003288,-1023.8907477848838) translate(197.35026909722222 32.6171875)"/><use xlink:href="#f" transform="matrix(1,0,0,1,1192.0000000003288,-1023.8907477848838) translate(50.82748263888889 54.83940972222222)"/><use xlink:href="#g" transform="matrix(1,0,0,1,1192.0000000003288,-1023.8907477848838) translate(117.50500000000001 54.83940972222222)"/><use xlink:href="#h" transform="matrix(1,0,0,1,1192.0000000003288,-1023.8907477848838) translate(157.51151041666668 54.83940972222222)"/><use xlink:href="#i" transform="matrix(1,0,0,1,1192.0000000003288,-1023.8907477848838) translate(58.1579861111111 77.06163194444444)"/><path d="M941-817.55h-2v-13.82h2zm0-38.26h-2v-17.58h2z" fill="#5e5e5e"/><path d="M940.5-874.33l.5-.12v1.1h-2v-1.14zM940-802.28l-4.64-14.27h9.28z" fill="#5e5e5e"/><path d="M940-799.04l-6-18.5h12zm-3.26-16.5l3.26 10.02 3.26-10.03z" fill="#5e5e5e"/><use xlink:href="#j" transform="matrix(1,0,0,1,932.6654731149297,-855.8123670752225) translate(0 19.55078125)"/><path d="M935.64-795.88c2.4-2.28 6.3-2.28 8.72 0l100.7 95.05c2.42 2.27 2.42 5.96 0 8.24l-100.7 95.06c-2.4 2.27-6.3 2.27-8.72 0l-100.7-95.05c-2.42-2.27-2.42-5.96 0-8.23z" stroke="#5e5e5e" stroke-width="3" fill="#c7e8ac"/><use xlink:href="#k" transform="matrix(1,0,0,1,835.5708661661375,-795) translate(57.830737847222224 91.6484375)"/><use xlink:href="#l" transform="matrix(1,0,0,1,835.5708661661375,-795) translate(124.50825520833334 91.6484375)"/><use xlink:href="#m" transform="matrix(1,0,0,1,835.5708661661375,-795) translate(57.83073784722221 113.87065972222223)"/><path d="M1317.5-915.03v41.77c0 .03 0 .05-.04.05-.03 0-.05 0-.05.04v24.27" stroke="#5e5e5e" stroke-width="2" fill="none"/><path d="M1318.5-915h-2v-1.03h2z" fill="#5e5e5e"/><path d="M1317.4-833.62l-4.63-14.27h9.27z" stroke="#5e5e5e" stroke-width="2" fill="#5e5e5e"/><path d="M1187.4-822.9c0-3.3 2.7-6 6-6h248c3.32 0 6 2.7 6 6v123.12c0 3.32-2.68 6-6 6h-248c-3.3 0-6-2.68-6-6z" stroke="#5e5e5e" stroke-width="3" fill="#d1bcd2"/><use xlink:href="#n" transform="matrix(1,0,0,1,1199.408778804212,-816.8888888888889) translate(31.319227430555543 17.7734375)"/><use xlink:href="#o" transform="matrix(1,0,0,1,1199.408778804212,-816.8888888888889) translate(124.66775173611111 17.7734375)"/><use xlink:href="#p" transform="matrix(1,0,0,1,1199.408778804212,-816.8888888888889) translate(44.65473090277777 39.99565972222222)"/><use xlink:href="#q" transform="matrix(1,0,0,1,1199.408778804212,-816.8888888888889) translate(151.33875868055557 39.99565972222222)"/><use xlink:href="#r" transform="matrix(1,0,0,1,1199.408778804212,-816.8888888888889) translate(44.65473090277777 62.21788194444444)"/><use xlink:href="#s" transform="matrix(1,0,0,1,1199.408778804212,-816.8888888888889) translate(151.33875868055557 62.21788194444444)"/><use xlink:href="#t" transform="matrix(1,0,0,1,1199.408778804212,-816.8888888888889) translate(17.983723958333314 84.44010416666666)"/><use xlink:href="#u" transform="matrix(1,0,0,1,1199.408778804212,-816.8888888888889) translate(164.6742621527778 84.44010416666666)"/><use xlink:href="#v" transform="matrix(1,0,0,1,1199.408778804212,-816.8888888888889) translate(71.32573784722223 106.66232638888889)"/><use xlink:href="#w" transform="matrix(1,0,0,1,1199.408778804212,-816.8888888888889) translate(111.33224826388889 106.66232638888889)"/><path d="M1317.4-691.28v66.15" stroke="#5e5e5e" stroke-width="2" fill="none"/><path d="M1318.4-691.25h-2v-1.03h2z" fill="#5e5e5e"/><path d="M1317.4-609.87l-4.63-14.26h9.27z" stroke="#5e5e5e" stroke-width="2" fill="#5e5e5e"/><path d="M771.37-695.7h-27.1v-2h27.1zm59.26 0h-44.6v-2h44.6z" fill="#5e5e5e"/><path d="M831.6-696.55l.2.84h-1.2v-2h1.2zM743.27-692.08L729-696.7l14.27-4.65z" fill="#5e5e5e"/><path d="M744.27-690.7l-18.5-6 18.5-6.02zm-12.03-6l10.03 3.25v-6.52z" fill="#5e5e5e"/><use xlink:href="#b" transform="matrix(1,0,0,1,771.3652322694287,-708.9348204794479) translate(0 19.55078125)"/><path d="M590-637.5v40.8M590-637.47v-1.03" stroke="#5e5e5e" stroke-width="2" fill="none"/><path d="M590-581.45l-4.64-14.26h9.28z" stroke="#5e5e5e" stroke-width="2" fill="#5e5e5e"/><path d="M460-570.7c0-3.33 2.7-6 6-6h248c3.3 0 6 2.67 6 6v108c0 3.3-2.7 6-6 6H466c-3.3 0-6-2.7-6-6z" stroke="#5e5e5e" stroke-width="3" fill="#d1bcd2"/><use xlink:href="#n" transform="matrix(1,0,0,1,472,-564.7125984251969) translate(31.319227430555543 17.7734375)"/><use xlink:href="#o" transform="matrix(1,0,0,1,472,-564.7125984251969) translate(124.66775173611111 17.7734375)"/><use xlink:href="#x" transform="matrix(1,0,0,1,472,-564.7125984251969) translate(31.31922743055553 39.99565972222222)"/><use xlink:href="#y" transform="matrix(1,0,0,1,472,-564.7125984251969) translate(11.315972222222214 62.21788194444444)"/><use xlink:href="#z" transform="matrix(1,0,0,1,472,-564.7125984251969) translate(77.99348958333333 62.21788194444444)"/><use xlink:href="#A" transform="matrix(1,0,0,1,472,-564.7125984251969) translate(131.33550347222223 62.21788194444444)"/><use xlink:href="#B" transform="matrix(1,0,0,1,472,-564.7125984251969) translate(17.983723958333314 84.44010416666666)"/><use xlink:href="#C" transform="matrix(1,0,0,1,472,-564.7125984251969) translate(124.66775173611111 84.44010416666666)"/><path d="M1217.42-599.33c.86-3.2 4.24-5.8 7.55-5.8h216.44c3.32 0 5.32 2.6 4.46 5.8l-28.47 106.76c-.86 3.2-4.24 5.8-7.55 5.8H1193.4c-3.3 0-5.3-2.6-4.45-5.8z" stroke="#5e5e5e" stroke-width="3" fill="#c7e8ac"/><use xlink:href="#k" transform="matrix(1,0,0,1,1199.408778804212,-593.1322179369829) translate(77.33073784722222 32.6171875)"/><use xlink:href="#l" transform="matrix(1,0,0,1,1199.408778804212,-593.1322179369829) translate(144.00825520833334 32.6171875)"/><use xlink:href="#D" transform="matrix(1,0,0,1,1199.408778804212,-593.1322179369829) translate(57.49523437499998 54.83940972222222)"/><use xlink:href="#E" transform="matrix(1,0,0,1,1199.408778804212,-593.1322179369829) translate(44.82248263888887 77.06163194444444)"/><path d="M510.02-750.1c.85-3.2 4.23-5.8 7.54-5.8H734c3.3 0 5.3 2.6 4.45 5.8l-28.47 106.77c-.85 3.2-4.23 5.8-7.54 5.8H486c-3.3 0-5.3-2.6-4.45-5.8z" stroke="#5e5e5e" stroke-width="3" fill="#c7e8ac"/><use xlink:href="#F" transform="matrix(1,0,0,1,492.00000000032855,-743.8907479527969) translate(40.49197916666666 44.4921875)"/><use xlink:href="#G" transform="matrix(1,0,0,1,492.00000000032855,-743.8907479527969) translate(120.50500000000001 44.4921875)"/><use xlink:href="#H" transform="matrix(1,0,0,1,492.00000000032855,-743.8907479527969) translate(187.1825173611111 44.4921875)"/><use xlink:href="#I" transform="matrix(1,0,0,1,492.00000000032855,-743.8907479527969) translate(54.99523437499999 66.71440972222223)"/><use xlink:href="#J" transform="matrix(1,0,0,1,492.00000000032855,-743.8907479527969) translate(135.00825520833334 66.71440972222223)"/><path d="M941-520h-2v-15.72h2zm0-40.16h-2v-33.22h2z" fill="#5e5e5e"/><path d="M940.5-594.33l.5-.12v1.1h-2v-1.14zM940-504.74L935.36-519h9.28z" fill="#5e5e5e"/><path d="M940-501.5l-6-18.5h12zm-3.26-16.5l3.26 10.03 3.26-10.03z" fill="#5e5e5e"/><use xlink:href="#j" transform="matrix(1,0,0,1,932.6654731373012,-560.1636951753518) translate(0 19.55078125)"/><path d="M840.02-494.2c.85-3.2 4.23-5.8 7.54-5.8H1064c3.3 0 5.3 2.6 4.45 5.8l-28.47 106.76c-.85 3.2-4.23 5.8-7.54 5.8H816c-3.3 0-5.3-2.6-4.45-5.8z" stroke="#5e5e5e" stroke-width="3" fill="#c7e8ac"/><use xlink:href="#K" transform="matrix(1,0,0,1,822.0000000003286,-488) translate(51.32748263888889 53.3984375)"/><use xlink:href="#L" transform="matrix(1,0,0,1,822.0000000003286,-488) translate(131.34050347222222 53.3984375)"/><path d="M940-379.14V-340" stroke="#5e5e5e" stroke-width="2" fill="none"/><path d="M941-379.12h-2v-1.02h2z" fill="#5e5e5e"/><path d="M940-324.74L935.36-339h9.28z" stroke="#5e5e5e" stroke-width="2" fill="#5e5e5e"/><path d="M840.02-314.2c.85-3.2 4.23-5.8 7.54-5.8H1064c3.3 0 5.3 2.6 4.45 5.8l-28.47 106.76c-.85 3.2-4.23 5.8-7.54 5.8H816c-3.3 0-5.3-2.6-4.45-5.8z" stroke="#5e5e5e" stroke-width="3" fill="#c7e8ac"/><use xlink:href="#M" transform="matrix(1,0,0,1,822.0000000003287,-308) translate(27.15647569444443 44.4921875)"/><use xlink:href="#N" transform="matrix(1,0,0,1,822.0000000003287,-308) translate(120.50500000000001 44.4921875)"/><use xlink:href="#O" transform="matrix(1,0,0,1,822.0000000003287,-308) translate(68.33073784722221 66.71440972222223)"/><path d="M490.02-375.85c.85-3.2 4.23-5.8 7.54-5.8H714c3.3 0 5.3 2.6 4.45 5.8l-28.47 106.77c-.85 3.2-4.23 5.8-7.54 5.8H466c-3.3 0-5.3-2.6-4.45-5.8z" stroke="#5e5e5e" stroke-width="3" fill="#c7e8ac"/><use xlink:href="#M" transform="matrix(1,0,0,1,472,-369.6437009448) translate(27.15647569444443 44.4921875)"/><use xlink:href="#N" transform="matrix(1,0,0,1,472,-369.6437009448) translate(120.50500000000001 44.4921875)"/><use xlink:href="#O" transform="matrix(1,0,0,1,472,-369.6437009448) translate(68.33073784722221 66.71440972222223)"/><path d="M590-454.2v52.55" stroke="#5e5e5e" stroke-width="2" fill="none"/><path d="M591-454.2h-2v-1h2z" fill="#5e5e5e"/><path d="M590-386.38l-4.64-14.27h9.28z" stroke="#5e5e5e" stroke-width="2" fill="#5e5e5e"/><path d="M940-199.14V-140" stroke="#5e5e5e" stroke-width="2" fill="none"/><path d="M941-199.12h-2v-1.02h2z" fill="#5e5e5e"/><path d="M940-124.74L935.36-139h9.28z" stroke="#5e5e5e" stroke-width="2" fill="#5e5e5e"/><path d="M810-114c0-3.3 2.7-6 6-6h248c3.3 0 6 2.7 6 6V-6c0 3.3-2.7 6-6 6H816c-3.3 0-6-2.7-6-6z" stroke="#5e5e5e" stroke-width="3" fill="#d1bcd2"/><use xlink:href="#P" transform="matrix(1,0,0,1,822.0000000003286,-108) translate(57.990234375 32.7734375)"/><use xlink:href="#Q" transform="matrix(1,0,0,1,822.0000000003286,-108) translate(138.00325520833334 32.7734375)"/><use xlink:href="#R" transform="matrix(1,0,0,1,822.0000000003286,-108) translate(4.648220486111086 54.99565972222222)"/><use xlink:href="#S" transform="matrix(1,0,0,1,822.0000000003286,-108) translate(151.33875868055557 54.99565972222222)"/><use xlink:href="#T" transform="matrix(1,0,0,1,822.0000000003286,-108) translate(71.32573784722221 77.21788194444444)"/><path d="M460-195.64c0-3.32 2.7-6 6-6h248c3.3 0 6 2.68 6 6v108c0 3.3-2.7 6-6 6H466c-3.3 0-6-2.7-6-6z" stroke="#5e5e5e" stroke-width="3" fill="#d1bcd2"/><use xlink:href="#P" transform="matrix(1,0,0,1,472,-189.6437009448) translate(57.990234375 32.7734375)"/><use xlink:href="#Q" transform="matrix(1,0,0,1,472,-189.6437009448) translate(138.00325520833334 32.7734375)"/><use xlink:href="#U" transform="matrix(1,0,0,1,472,-189.6437009448) translate(51.32248263888887 54.99565972222222)"/><use xlink:href="#C" transform="matrix(1,0,0,1,472,-189.6437009448) translate(71.32573784722221 77.21788194444444)"/><path d="M590-260.8v39.15" stroke="#5e5e5e" stroke-width="2" fill="none"/><path d="M591-260.76h-2v-1.03h2z" fill="#5e5e5e"/><path d="M590-206.38l-4.64-14.27h9.28z" stroke="#5e5e5e" stroke-width="2" fill="#5e5e5e"/><path d="M940 2.5v38.32" stroke="#5e5e5e" stroke-width="2" fill="none"/><path d="M941 2.53h-2V1.5h2z" fill="#5e5e5e"/><path d="M940 56.08l-4.64-14.26h9.28z" stroke="#5e5e5e" stroke-width="2" fill="#5e5e5e"/><path d="M1131-65.87l-.92 3.42-2.53 2.53-3.42.92h-51.63v-2h51.37l2.64-.7 1.8-1.8.7-2.63v-86.94h2zm-3.45-375.03l2.53 2.53.92 3.42v259.66h-2v-259.4l-.7-2.63-1.8-1.78-2.63-.72h-49.6v-2h49.86z" fill="#5e5e5e"/><path d="M1072.53-59h-1.03v-2h1.03zM1073.27-436.2L1059-440.8l14.27-4.64z" fill="#5e5e5e"/><path d="M1074.27-434.8l-18.5-6.02 18.5-6zm-12.03-6.02l10.03 3.26v-6.52z" fill="#5e5e5e"/><g><use xlink:href="#V" transform="matrix(1,0,0,1,1009.98046875,-175.29036486519547) translate(0 17.7734375)"/><use xlink:href="#W" transform="matrix(1,0,0,1,1009.98046875,-175.29036486519547) translate(173.36154513888894 17.7734375)"/></g><path d="M590-79.14V-20" stroke="#5e5e5e" stroke-width="2" fill="none"/><path d="M591-79.12h-2v-1.02h2z" fill="#5e5e5e"/><path d="M590-4.74L585.36-19h9.28z" stroke="#5e5e5e" stroke-width="2" fill="#5e5e5e"/><path d="M1317.4-484.28V-440" stroke="#5e5e5e" stroke-width="2" fill="none"/><path d="M1318.4-484.25h-2v-1.03h2z" fill="#5e5e5e"/><path d="M1317.4-424.74l-4.63-14.26h9.27z" stroke="#5e5e5e" stroke-width="2" fill="#5e5e5e"/><path d="M490.02 5.8c.85-3.2 4.23-5.8 7.54-5.8H714c3.3 0 5.3 2.6 4.45 5.8l-28.47 106.76c-.85 3.2-4.23 5.8-7.54 5.8H466c-3.3 0-5.3-2.6-4.45-5.8z" stroke="#5e5e5e" stroke-width="3" fill="#ff8f80"/><g><use xlink:href="#X" transform="matrix(1,0,0,1,472,12) translate(11.320972222222204 53.3984375)"/><use xlink:href="#Y" transform="matrix(1,0,0,1,472,12) translate(131.34050347222222 53.3984375)"/></g><path d="M840.02 66.62c.85-3.2 4.23-5.8 7.54-5.8H1064c3.3 0 5.3 2.6 4.45 5.8l-28.47 106.76c-.85 3.2-4.23 5.8-7.54 5.8H816c-3.3 0-5.3-2.6-4.45-5.8z" stroke="#5e5e5e" stroke-width="3" fill="#ff8f80"/><g><use xlink:href="#X" transform="matrix(1,0,0,1,822.0000000003288,72.8218504724) translate(17.320972222222203 32.6171875)"/><use xlink:href="#Z" transform="matrix(1,0,0,1,822.0000000003288,72.8218504724) translate(137.34050347222222 32.6171875)"/><use xlink:href="#z" transform="matrix(1,0,0,1,822.0000000003288,72.8218504724) translate(50.82748263888889 54.83940972222222)"/><use xlink:href="#aa" transform="matrix(1,0,0,1,822.0000000003288,72.8218504724) translate(104.16949652777777 54.83940972222222)"/><use xlink:href="#C" transform="matrix(1,0,0,1,822.0000000003288,72.8218504724) translate(64.82573784722221 77.06163194444444)"/></g><path d="M1217.42-414.2c.86-3.2 4.24-5.8 7.55-5.8h216.44c3.32 0 5.32 2.6 4.46 5.8l-28.47 106.76c-.86 3.2-4.24 5.8-7.55 5.8H1193.4c-3.3 0-5.3-2.6-4.45-5.8z" stroke="#5e5e5e" stroke-width="3" fill="#ff8f80"/><g><use xlink:href="#ab" transform="matrix(1,0,0,1,1199.408778804212,-408) translate(80.49848958333332 44.4921875)"/><use xlink:href="#ac" transform="matrix(1,0,0,1,1199.408778804212,-408) translate(48.327482638888874 66.71440972222223)"/></g><path d="M460.17 226c0-3.3 2.68-6 6-6h975.4c3.32 0 6 2.7 6 6v68c0 3.3-2.68 6-6 6h-975.4c-3.32 0-6-2.7-6-6z" stroke="#5e5e5e" stroke-width="3" fill="#d1bcd2"/><g><use xlink:href="#ad" transform="matrix(1,0,0,1,472.16712670002164,232) translate(248.6286892361111 35.2734375)"/><use xlink:href="#ae" transform="matrix(1,0,0,1,472.16712670002164,232) translate(341.97721354166663 35.2734375)"/><use xlink:href="#z" transform="matrix(1,0,0,1,472.16712670002164,232) translate(461.9967447916667 35.2734375)"/><use xlink:href="#af" transform="matrix(1,0,0,1,472.16712670002164,232) translate(515.3387586805555 35.2734375)"/><use xlink:href="#ag" transform="matrix(1,0,0,1,472.16712670002164,232) translate(595.3517795138889 35.2734375)"/></g><path d="M590 120.86v48.48c0 .05.04.1.08.1.05 0 .1.03.1.07v31" stroke="#5e5e5e" stroke-width="2" fill="none"/><path d="M591 120.88h-2v-1.02h2z" fill="#5e5e5e"/><path d="M590.17 215.76l-4.64-14.26h9.27z" stroke="#5e5e5e" stroke-width="2" fill="#5e5e5e"/><path d="M940 181.68V200" stroke="#5e5e5e" stroke-width="2" fill="none"/><path d="M941 181.7h-2v-1.02h2z" fill="#5e5e5e"/><path d="M940 215.26L935.36 201h9.28z" stroke="#5e5e5e" stroke-width="2" fill="#5e5e5e"/><path d="M1317.4-299.14v258.48c0 .05.05.1.1.1.04 0 .08.03.08.07v241" stroke="#5e5e5e" stroke-width="2" fill="none"/><path d="M1318.4-299.12h-2v-1.02h2z" fill="#5e5e5e"/><path d="M1317.58 215.76l-4.64-14.26h9.27z" stroke="#5e5e5e" stroke-width="2" fill="#5e5e5e"/><path d="M935.64-1075.88c2.4-2.28 6.3-2.28 8.72 0l100.7 95.05c2.42 2.27 2.42 5.96 0 8.24l-100.7 95.06c-2.4 2.27-6.3 2.27-8.72 0l-100.7-95.05c-2.42-2.27-2.42-5.96 0-8.23z" stroke="#5e5e5e" stroke-width="3" fill="#c7e8ac"/><g><use xlink:href="#k" transform="matrix(1,0,0,1,835.5708661661376,-1074.9999998320868) translate(57.830737847222224 91.6484375)"/><use xlink:href="#l" transform="matrix(1,0,0,1,835.5708661661376,-1074.9999998320868) translate(124.50825520833334 91.6484375)"/><use xlink:href="#ah" transform="matrix(1,0,0,1,835.5708661661376,-1074.9999998320868) translate(44.495234374999995 113.87065972222223)"/></g><path d="M331 253.87l.7 2.64 1.8 1.8 2.63.7h121.54v2h-121.8l-3.42-.92-2.53-2.53-.92-3.42v-67.48h2zm509.73-1429.1h-504.6l-2.64.7-1.8 1.8-.7 2.63V165.32h-2v-1335.7l.92-3.4 2.53-2.53 3.42-.93h504.86z" fill="#5e5e5e"/><path d="M458.67 261h-1.03v-2h1.03zM856-1176.23l-14.27 4.63v-9.27z" fill="#5e5e5e"/><path d="M859.24-1176.23l-18.5 6v-12.02zm-16.5 3.26l10.02-3.26-10.03-3.26z" fill="#5e5e5e"/><g><use xlink:href="#ai" transform="matrix(1,0,0,1,184.86419753086417,165.31567341406625) translate(0.0049999999999954525 14.222222222222223)"/><use xlink:href="#aj" transform="matrix(1,0,0,1,184.86419753086417,165.31567341406625) translate(66.67166666666668 14.222222222222223)"/><use xlink:href="#ak" transform="matrix(1,0,0,1,184.86419753086417,165.31567341406625) translate(109.04203703703706 14.222222222222223)"/><use xlink:href="#al" transform="matrix(1,0,0,1,184.86419753086417,165.31567341406625) translate(161.28895061728397 14.222222222222223)"/></g><defs><path fill="#333" d="M609-1161c-125 0-218 36-218 153 0 149 166 161 290 196 235 67 484 129 484 421 0 300-239 408-554 411C302 23 93-114 38-367l285-37c32 128 131 205 296 203 143-2 259-31 259-173 0-164-197-172-333-212-218-64-441-131-441-405 0-276 231-379 511-379 299 0 463 114 513 363l-286 29c-28-115-96-183-233-183" id="am"/><path fill="#333" d="M762-1121V0H467v-1121H61v-228h1107v228H762" id="an"/><path fill="#333" d="M1229 0H935l-92-330H387L295 0H0l443-1349h344zM615-1167c-46 213-110 412-166 615h332c-56-204-119-401-166-615" id="ao"/><path fill="#333" d="M1157-949c0 209-118 316-279 368L1227 0H895L605-515H432V0H137v-1349h494c317-2 526 111 526 400zM608-744c158 1 248-51 252-193 5-207-223-184-428-183v376h176" id="ap"/><g id="a"><use transform="matrix(0.010850694444444444,0,0,0.010850694444444444,0,0)" xlink:href="#am"/><use transform="matrix(0.010850694444444444,0,0,0.010850694444444444,13.335503472222221,0)" xlink:href="#an"/><use transform="matrix(0.010850694444444444,0,0,0.010850694444444444,26.671006944444443,0)" xlink:href="#ao"/><use transform="matrix(0.010850694444444444,0,0,0.010850694444444444,40.006510416666664,0)" xlink:href="#ap"/><use transform="matrix(0.010850694444444444,0,0,0.010850694444444444,53.342013888888886,0)" xlink:href="#an"/></g><path fill="#333" d="M117-675c0-408 109-695 502-695 384 0 492 295 492 695 0 326-84 561-303 658-117 51-277 52-394 1-217-95-297-335-297-659zm591 451c148-93 132-449 108-680-15-138-53-246-199-246-150 0-193 107-207 248-22 230-40 585 106 678 50 32 141 32 192 0zM506-555v-249h215v249H506" id="aq"/><use transform="matrix(0.011935763888888888,0,0,0.011935763888888888,0,0)" xlink:href="#aq" id="b"/><path fill="#333" d="M872-915c-35-112-84-223-220-223-91 0-156 41-204 116-89 137-87 550 2 688 51 79 116 122 209 122 150 0 197-126 240-244l273 52C1094-168 961 20 656 20 239 20 80-262 80-681c0-418 154-689 568-689 289 0 425 167 496 389" id="ar"/><path fill="#333" d="M865-312c-44-312-23-686-28-1037h257V0H748L364-1010c44 304 24 668 28 1010H135v-1349h337" id="as"/><g id="c"><use transform="matrix(0.010850694444444444,0,0,0.010850694444444444,0,0)" xlink:href="#am"/><use transform="matrix(0.010850694444444444,0,0,0.010850694444444444,13.335503472222221,0)" xlink:href="#ar"/><use transform="matrix(0.010850694444444444,0,0,0.010850694444444444,26.671006944444443,0)" xlink:href="#ao"/><use transform="matrix(0.010850694444444444,0,0,0.010850694444444444,40.006510416666664,0)" xlink:href="#as"/></g><path fill="#333" d="M836-709c204 20 350 118 350 324C1186-112 992 0 719 0H137v-1349h525c258 3 443 87 443 339 0 176-107 269-269 301zM643-811c107 0 165-53 165-159 0-113-61-160-167-160H432v319h211zm46 592c128-1 201-59 200-191-1-128-80-183-207-183H432v374h257" id="at"/><path fill="#333" d="M615-1370c385 0 542 273 542 691 0 230-47 404-140 522S790 20 615 20C231 20 72-262 72-679c0-419 158-691 543-691zM797-330c77-133 78-564 0-695-44-73-101-113-182-113s-139 40-183 114c-79 133-78 560 0 694 45 77 102 118 183 118s138-41 182-118" id="au"/><path fill="#333" d="M496-1349c439 0 656 222 653 664C1146-265 969 0 556 0H135v-1349h361zm36 1121c245-7 319-187 320-457 1-273-91-439-361-436h-61v893h102" id="av"/><path fill="#333" d="M137 0v-1349h968v228H432v324h612v228H432v341h714V0H137" id="aw"/><g id="d"><use transform="matrix(0.010850694444444444,0,0,0.010850694444444444,0,0)" xlink:href="#at"/><use transform="matrix(0.010850694444444444,0,0,0.010850694444444444,13.335503472222221,0)" xlink:href="#ao"/><use transform="matrix(0.010850694444444444,0,0,0.010850694444444444,26.671006944444443,0)" xlink:href="#ap"/><use transform="matrix(0.010850694444444444,0,0,0.010850694444444444,40.006510416666664,0)" xlink:href="#ar"/><use transform="matrix(0.010850694444444444,0,0,0.010850694444444444,53.342013888888886,0)" xlink:href="#au"/><use transform="matrix(0.010850694444444444,0,0,0.010850694444444444,66.67751736111111,0)" xlink:href="#av"/><use transform="matrix(0.010850694444444444,0,0,0.010850694444444444,80.01302083333334,0)" xlink:href="#aw"/></g><g id="e"><use transform="matrix(0.010850694444444444,0,0,0.010850694444444444,0,0)" xlink:href="#au"/><use transform="matrix(0.010850694444444444,0,0,0.010850694444444444,13.335503472222221,0)" xlink:href="#as"/></g><path fill="#333" d="M157-1349h916v228H762v893h311V0H157v-228h311v-893H157v-228" id="ax"/><path fill="#333" d="M305-1169c27 366 9 780 14 1169H99v-1349h347c49 189 108 371 150 564 12 56 15 107 23 166 33-270 117-487 176-730h335V0H908c5-390-13-801 16-1169-52 285-130 541-199 809H507c-70-267-148-525-202-809" id="ay"/><g id="f"><use transform="matrix(0.010850694444444444,0,0,0.010850694444444444,0,0)" xlink:href="#ax"/><use transform="matrix(0.010850694444444444,0,0,0.010850694444444444,13.335503472222221,0)" xlink:href="#an"/><use transform="matrix(0.010850694444444444,0,0,0.010850694444444444,26.671006944444443,0)" xlink:href="#aw"/><use transform="matrix(0.010850694444444444,0,0,0.010850694444444444,40.006510416666664,0)" xlink:href="#ay"/></g><g id="g"><use transform="matrix(0.010850694444444444,0,0,0.010850694444444444,0,0)" xlink:href="#an"/><use transform="matrix(0.010850694444444444,0,0,0.010850694444444444,13.335503472222221,0)" xlink:href="#au"/></g><g id="h"><use transform="matrix(0.010850694444444444,0,0,0.010850694444444444,0,0)" xlink:href="#at"/><use transform="matrix(0.010850694444444444,0,0,0.010850694444444444,13.335503472222221,0)" xlink:href="#aw"/></g><path fill="#333" d="M761-556V0H467v-556L3-1349h309l300 566 304-566h309" id="az"/><path fill="#333" d="M211 0v-1349h295v1121h616V0H211" id="aA"/><g id="i"><use transform="matrix(0.010850694444444444,0,0,0.010850694444444444,0,0)" xlink:href="#ap"/><use transform="matrix(0.010850694444444444,0,0,0.010850694444444444,13.335503472222221,0)" xlink:href="#aw"/><use transform="matrix(0.010850694444444444,0,0,0.010850694444444444,26.671006944444443,0)" xlink:href="#ar"/><use transform="matrix(0.010850694444444444,0,0,0.010850694444444444,40.006510416666664,0)" xlink:href="#az"/><use transform="matrix(0.010850694444444444,0,0,0.010850694444444444,53.342013888888886,0)" xlink:href="#ar"/><use transform="matrix(0.010850694444444444,0,0,0.010850694444444444,66.67751736111111,0)" xlink:href="#aA"/><use transform="matrix(0.010850694444444444,0,0,0.010850694444444444,80.01302083333334,0)" xlink:href="#aw"/><use transform="matrix(0.010850694444444444,0,0,0.010850694444444444,93.34852430555557,0)" xlink:href="#av"/></g><path fill="#333" d="M138-1120c207-4 339-93 415-229h266v1140h323V0H149v-209h389v-891c-70 121-216 187-400 194v-214" id="aB"/><use transform="matrix(0.011935763888888888,0,0,0.011935763888888888,0,0)" xlink:href="#aB" id="j"/><g id="k"><use transform="matrix(0.010850694444444444,0,0,0.010850694444444444,0,0)" xlink:href="#ay"/><use transform="matrix(0.010850694444444444,0,0,0.010850694444444444,13.335503472222221,0)" xlink:href="#au"/><use transform="matrix(0.010850694444444444,0,0,0.010850694444444444,26.671006944444443,0)" xlink:href="#av"/><use transform="matrix(0.010850694444444444,0,0,0.010850694444444444,40.006510416666664,0)" xlink:href="#aw"/></g><path fill="#333" d="M462-1121v384h621v228H462V0H167v-1349h939v228H462" id="aC"/><g id="l"><use transform="matrix(0.010850694444444444,0,0,0.010850694444444444,0,0)" xlink:href="#au"/><use transform="matrix(0.010850694444444444,0,0,0.010850694444444444,13.335503472222221,0)" xlink:href="#aC"/></g><path fill="#333" d="M616-1349c316 3 526 118 526 426 0 301-201 442-514 447H431V0H136v-1349h480zm-25 646c164 1 254-62 254-215 0-157-99-200-262-202H431v417h160" id="aD"/><g id="m"><use transform="matrix(0.010850694444444444,0,0,0.010850694444444444,0,0)" xlink:href="#aD"/><use transform="matrix(0.010850694444444444,0,0,0.010850694444444444,13.335503472222221,0)" xlink:href="#ao"/><use transform="matrix(0.010850694444444444,0,0,0.010850694444444444,26.671006944444443,0)" xlink:href="#az"/><use transform="matrix(0.010850694444444444,0,0,0.010850694444444444,40.006510416666664,0)" xlink:href="#ay"/><use transform="matrix(0.010850694444444444,0,0,0.010850694444444444,53.342013888888886,0)" xlink:href="#aw"/><use transform="matrix(0.010850694444444444,0,0,0.010850694444444444,66.67751736111111,0)" xlink:href="#as"/><use transform="matrix(0.010850694444444444,0,0,0.010850694444444444,80.01302083333334,0)" xlink:href="#an"/></g><path fill="#333" d="M796 0v-574H433V0H138v-1349h295v531h363v-531h295V0H796" id="aE"/><g id="n"><use transform="matrix(0.010850694444444444,0,0,0.010850694444444444,0,0)" xlink:href="#aD"/><use transform="matrix(0.010850694444444444,0,0,0.010850694444444444,13.335503472222221,0)" xlink:href="#az"/><use transform="matrix(0.010850694444444444,0,0,0.010850694444444444,26.671006944444443,0)" xlink:href="#an"/><use transform="matrix(0.010850694444444444,0,0,0.010850694444444444,40.006510416666664,0)" xlink:href="#aE"/><use transform="matrix(0.010850694444444444,0,0,0.010850694444444444,53.342013888888886,0)" xlink:href="#au"/><use transform="matrix(0.010850694444444444,0,0,0.010850694444444444,66.67751736111111,0)" xlink:href="#as"/></g><g id="o"><use transform="matrix(0.010850694444444444,0,0,0.010850694444444444,0,0)" xlink:href="#am"/><use transform="matrix(0.010850694444444444,0,0,0.010850694444444444,13.335503472222221,0)" xlink:href="#ar"/><use transform="matrix(0.010850694444444444,0,0,0.010850694444444444,26.671006944444443,0)" xlink:href="#ap"/><use transform="matrix(0.010850694444444444,0,0,0.010850694444444444,40.006510416666664,0)" xlink:href="#ax"/><use transform="matrix(0.010850694444444444,0,0,0.010850694444444444,53.342013888888886,0)" xlink:href="#aD"/><use transform="matrix(0.010850694444444444,0,0,0.010850694444444444,66.67751736111111,0)" xlink:href="#an"/></g><g id="p"><use transform="matrix(0.010850694444444444,0,0,0.010850694444444444,0,0)" xlink:href="#av"/><use transform="matrix(0.010850694444444444,0,0,0.010850694444444444,13.335503472222221,0)" xlink:href="#aw"/><use transform="matrix(0.010850694444444444,0,0,0.010850694444444444,26.671006944444443,0)" xlink:href="#ar"/><use transform="matrix(0.010850694444444444,0,0,0.010850694444444444,40.006510416666664,0)" xlink:href="#au"/><use transform="matrix(0.010850694444444444,0,0,0.010850694444444444,53.342013888888886,0)" xlink:href="#av"/><use transform="matrix(0.010850694444444444,0,0,0.010850694444444444,66.67751736111111,0)" xlink:href="#aw"/><use transform="matrix(0.010850694444444444,0,0,0.010850694444444444,80.01302083333334,0)" xlink:href="#am"/></g><g id="q"><use transform="matrix(0.010850694444444444,0,0,0.010850694444444444,0,0)" xlink:href="#an"/><use transform="matrix(0.010850694444444444,0,0,0.010850694444444444,13.335503472222221,0)" xlink:href="#aE"/><use transform="matrix(0.010850694444444444,0,0,0.010850694444444444,26.671006944444443,0)" xlink:href="#aw"/></g><g id="r"><use transform="matrix(0.010850694444444444,0,0,0.010850694444444444,0,0)" xlink:href="#at"/><use transform="matrix(0.010850694444444444,0,0,0.010850694444444444,13.335503472222221,0)" xlink:href="#ao"/><use transform="matrix(0.010850694444444444,0,0,0.010850694444444444,26.671006944444443,0)" xlink:href="#ap"/><use transform="matrix(0.010850694444444444,0,0,0.010850694444444444,40.006510416666664,0)" xlink:href="#ar"/><use transform="matrix(0.010850694444444444,0,0,0.010850694444444444,53.342013888888886,0)" xlink:href="#au"/><use transform="matrix(0.010850694444444444,0,0,0.010850694444444444,66.67751736111111,0)" xlink:href="#av"/><use transform="matrix(0.010850694444444444,0,0,0.010850694444444444,80.01302083333334,0)" xlink:href="#aw"/></g><g id="s"><use transform="matrix(0.010850694444444444,0,0,0.010850694444444444,0,0)" xlink:href="#ao"/><use transform="matrix(0.010850694444444444,0,0,0.010850694444444444,13.335503472222221,0)" xlink:href="#as"/><use transform="matrix(0.010850694444444444,0,0,0.010850694444444444,26.671006944444443,0)" xlink:href="#av"/></g><g id="t"><use transform="matrix(0.010850694444444444,0,0,0.010850694444444444,0,0)" xlink:href="#ax"/><use transform="matrix(0.010850694444444444,0,0,0.010850694444444444,13.335503472222221,0)" xlink:href="#av"/><use transform="matrix(0.010850694444444444,0,0,0.010850694444444444,26.671006944444443,0)" xlink:href="#aw"/><use transform="matrix(0.010850694444444444,0,0,0.010850694444444444,40.006510416666664,0)" xlink:href="#as"/><use transform="matrix(0.010850694444444444,0,0,0.010850694444444444,53.342013888888886,0)" xlink:href="#an"/><use transform="matrix(0.010850694444444444,0,0,0.010850694444444444,66.67751736111111,0)" xlink:href="#ax"/><use transform="matrix(0.010850694444444444,0,0,0.010850694444444444,80.01302083333334,0)" xlink:href="#aC"/><use transform="matrix(0.010850694444444444,0,0,0.010850694444444444,93.34852430555557,0)" xlink:href="#ax"/><use transform="matrix(0.010850694444444444,0,0,0.010850694444444444,106.6840277777778,0)" xlink:href="#aw"/><use transform="matrix(0.010850694444444444,0,0,0.010850694444444444,120.01953125000003,0)" xlink:href="#am"/></g><g id="u"><use transform="matrix(0.010850694444444444,0,0,0.010850694444444444,0,0)" xlink:href="#ar"/><use transform="matrix(0.010850694444444444,0,0,0.010850694444444444,13.335503472222221,0)" xlink:href="#au"/><use transform="matrix(0.010850694444444444,0,0,0.010850694444444444,26.671006944444443,0)" xlink:href="#am"/><use transform="matrix(0.010850694444444444,0,0,0.010850694444444444,40.006510416666664,0)" xlink:href="#an"/></g><g id="v"><use transform="matrix(0.010850694444444444,0,0,0.010850694444444444,0,0)" xlink:href="#au"/><use transform="matrix(0.010850694444444444,0,0,0.010850694444444444,13.335503472222221,0)" xlink:href="#aC"/></g><g id="w"><use transform="matrix(0.010850694444444444,0,0,0.010850694444444444,0,0)" xlink:href="#ax"/><use transform="matrix(0.010850694444444444,0,0,0.010850694444444444,13.335503472222221,0)" xlink:href="#an"/><use transform="matrix(0.010850694444444444,0,0,0.010850694444444444,26.671006944444443,0)" xlink:href="#aw"/><use transform="matrix(0.010850694444444444,0,0,0.010850694444444444,40.006510416666664,0)" xlink:href="#ay"/></g><path fill="#333" d="M1100-543c2 361-147 563-501 563-342 0-470-199-470-548v-821h295v818c3 172 13 322 183 320 173-2 198-150 198-330v-808h295v806" id="aF"/><g id="x"><use transform="matrix(0.010850694444444444,0,0,0.010850694444444444,0,0)" xlink:href="#ao"/><use transform="matrix(0.010850694444444444,0,0,0.010850694444444444,13.335503472222221,0)" xlink:href="#aF"/><use transform="matrix(0.010850694444444444,0,0,0.010850694444444444,26.671006944444443,0)" xlink:href="#an"/><use transform="matrix(0.010850694444444444,0,0,0.010850694444444444,40.006510416666664,0)" xlink:href="#aE"/><use transform="matrix(0.010850694444444444,0,0,0.010850694444444444,53.342013888888886,0)" xlink:href="#aw"/><use transform="matrix(0.010850694444444444,0,0,0.010850694444444444,66.67751736111111,0)" xlink:href="#as"/><use transform="matrix(0.010850694444444444,0,0,0.010850694444444444,80.01302083333334,0)" xlink:href="#an"/><use transform="matrix(0.010850694444444444,0,0,0.010850694444444444,93.34852430555557,0)" xlink:href="#ax"/><use transform="matrix(0.010850694444444444,0,0,0.010850694444444444,106.6840277777778,0)" xlink:href="#ar"/><use transform="matrix(0.010850694444444444,0,0,0.010850694444444444,120.01953125000003,0)" xlink:href="#ao"/><use transform="matrix(0.010850694444444444,0,0,0.010850694444444444,133.35503472222226,0)" xlink:href="#an"/><use transform="matrix(0.010850694444444444,0,0,0.010850694444444444,146.69053819444449,0)" xlink:href="#aw"/><use transform="matrix(0.010850694444444444,0,0,0.010850694444444444,160.0260416666667,0)" xlink:href="#am"/></g><g id="y"><use transform="matrix(0.010850694444444444,0,0,0.010850694444444444,0,0)" xlink:href="#aF"/><use transform="matrix(0.010850694444444444,0,0,0.010850694444444444,13.335503472222221,0)" xlink:href="#am"/><use transform="matrix(0.010850694444444444,0,0,0.010850694444444444,26.671006944444443,0)" xlink:href="#aw"/><use transform="matrix(0.010850694444444444,0,0,0.010850694444444444,40.006510416666664,0)" xlink:href="#ap"/></g><g id="z"><use transform="matrix(0.010850694444444444,0,0,0.010850694444444444,0,0)" xlink:href="#ao"/><use transform="matrix(0.010850694444444444,0,0,0.010850694444444444,13.335503472222221,0)" xlink:href="#as"/><use transform="matrix(0.010850694444444444,0,0,0.010850694444444444,26.671006944444443,0)" xlink:href="#av"/></g><g id="A"><use transform="matrix(0.010850694444444444,0,0,0.010850694444444444,0,0)" xlink:href="#aF"/><use transform="matrix(0.010850694444444444,0,0,0.010850694444444444,13.335503472222221,0)" xlink:href="#aD"/><use transform="matrix(0.010850694444444444,0,0,0.010850694444444444,26.671006944444443,0)" xlink:href="#av"/><use transform="matrix(0.010850694444444444,0,0,0.010850694444444444,40.006510416666664,0)" xlink:href="#ao"/><use transform="matrix(0.010850694444444444,0,0,0.010850694444444444,53.342013888888886,0)" xlink:href="#an"/><use transform="matrix(0.010850694444444444,0,0,0.010850694444444444,66.67751736111111,0)" xlink:href="#aw"/><use transform="matrix(0.010850694444444444,0,0,0.010850694444444444,80.01302083333334,0)" xlink:href="#am"/></g><g id="B"><use transform="matrix(0.010850694444444444,0,0,0.010850694444444444,0,0)" xlink:href="#ao"/><use transform="matrix(0.010850694444444444,0,0,0.010850694444444444,13.335503472222221,0)" xlink:href="#ar"/><use transform="matrix(0.010850694444444444,0,0,0.010850694444444444,26.671006944444443,0)" xlink:href="#ar"/><use transform="matrix(0.010850694444444444,0,0,0.010850694444444444,40.006510416666664,0)" xlink:href="#au"/><use transform="matrix(0.010850694444444444,0,0,0.010850694444444444,53.342013888888886,0)" xlink:href="#aF"/><use transform="matrix(0.010850694444444444,0,0,0.010850694444444444,66.67751736111111,0)" xlink:href="#as"/><use transform="matrix(0.010850694444444444,0,0,0.010850694444444444,80.01302083333334,0)" xlink:href="#an"/></g><g id="C"><use transform="matrix(0.010850694444444444,0,0,0.010850694444444444,0,0)" xlink:href="#at"/><use transform="matrix(0.010850694444444444,0,0,0.010850694444444444,13.335503472222221,0)" xlink:href="#ao"/><use transform="matrix(0.010850694444444444,0,0,0.010850694444444444,26.671006944444443,0)" xlink:href="#aA"/><use transform="matrix(0.010850694444444444,0,0,0.010850694444444444,40.006510416666664,0)" xlink:href="#ao"/><use transform="matrix(0.010850694444444444,0,0,0.010850694444444444,53.342013888888886,0)" xlink:href="#as"/><use transform="matrix(0.010850694444444444,0,0,0.010850694444444444,66.67751736111111,0)" xlink:href="#ar"/><use transform="matrix(0.010850694444444444,0,0,0.010850694444444444,80.01302083333334,0)" xlink:href="#aw"/></g><path fill="#333" d="M766 0H467L3-1349h308c102 347 212 687 307 1041 91-356 204-694 304-1041h305" id="aG"/><path fill="#333" d="M650-216c90 0 157-35 208-74v-235H584v-218h544v558C1004-84 858 20 635 20 235 20 80-276 80-681c0-416 146-689 558-689 277 0 398 160 462 375l-274 54c-31-108-73-197-185-197-231 0-262 217-262 457 0 149 22 263 67 344s113 121 204 121" id="aH"/><g id="D"><use transform="matrix(0.010850694444444444,0,0,0.010850694444444444,0,0)" xlink:href="#ap"/><use transform="matrix(0.010850694444444444,0,0,0.010850694444444444,13.335503472222221,0)" xlink:href="#aw"/><use transform="matrix(0.010850694444444444,0,0,0.010850694444444444,26.671006944444443,0)" xlink:href="#ar"/><use transform="matrix(0.010850694444444444,0,0,0.010850694444444444,40.006510416666664,0)" xlink:href="#aw"/><use transform="matrix(0.010850694444444444,0,0,0.010850694444444444,53.342013888888886,0)" xlink:href="#ax"/><use transform="matrix(0.010850694444444444,0,0,0.010850694444444444,66.67751736111111,0)" xlink:href="#aG"/><use transform="matrix(0.010850694444444444,0,0,0.010850694444444444,80.01302083333334,0)" xlink:href="#ax"/><use transform="matrix(0.010850694444444444,0,0,0.010850694444444444,93.34852430555557,0)" xlink:href="#as"/><use transform="matrix(0.010850694444444444,0,0,0.010850694444444444,106.6840277777778,0)" xlink:href="#aH"/></g><g id="E"><use transform="matrix(0.010850694444444444,0,0,0.010850694444444444,0,0)" xlink:href="#ax"/><use transform="matrix(0.010850694444444444,0,0,0.010850694444444444,13.335503472222221,0)" xlink:href="#as"/><use transform="matrix(0.010850694444444444,0,0,0.010850694444444444,26.671006944444443,0)" xlink:href="#ar"/><use transform="matrix(0.010850694444444444,0,0,0.010850694444444444,40.006510416666664,0)" xlink:href="#aw"/><use transform="matrix(0.010850694444444444,0,0,0.010850694444444444,53.342013888888886,0)" xlink:href="#as"/><use transform="matrix(0.010850694444444444,0,0,0.010850694444444444,66.67751736111111,0)" xlink:href="#an"/><use transform="matrix(0.010850694444444444,0,0,0.010850694444444444,80.01302083333334,0)" xlink:href="#ax"/><use transform="matrix(0.010850694444444444,0,0,0.010850694444444444,93.34852430555557,0)" xlink:href="#aG"/><use transform="matrix(0.010850694444444444,0,0,0.010850694444444444,106.6840277777778,0)" xlink:href="#aw"/><use transform="matrix(0.010850694444444444,0,0,0.010850694444444444,120.01953125000003,0)" xlink:href="#am"/></g><path fill="#333" d="M1018 0H770c-49-215-106-420-154-636C567-419 511-214 459 0H211L0-1349h259c35 320 94 617 105 961 37-206 100-393 154-583h195c54 191 118 375 154 583 14-339 68-641 102-961h259" id="aI"/><g id="F"><use transform="matrix(0.010850694444444444,0,0,0.010850694444444444,0,0)" xlink:href="#am"/><use transform="matrix(0.010850694444444444,0,0,0.010850694444444444,13.335503472222221,0)" xlink:href="#aI"/><use transform="matrix(0.010850694444444444,0,0,0.010850694444444444,26.671006944444443,0)" xlink:href="#ax"/><use transform="matrix(0.010850694444444444,0,0,0.010850694444444444,40.006510416666664,0)" xlink:href="#aD"/><use transform="matrix(0.010850694444444444,0,0,0.010850694444444444,53.342013888888886,0)" xlink:href="#aw"/></g><g id="G"><use transform="matrix(0.010850694444444444,0,0,0.010850694444444444,0,0)" xlink:href="#ar"/><use transform="matrix(0.010850694444444444,0,0,0.010850694444444444,13.335503472222221,0)" xlink:href="#ao"/><use transform="matrix(0.010850694444444444,0,0,0.010850694444444444,26.671006944444443,0)" xlink:href="#ap"/><use transform="matrix(0.010850694444444444,0,0,0.010850694444444444,40.006510416666664,0)" xlink:href="#av"/></g><path fill="#333" d="M726-569v408H500v-408H101v-224h399v-408h226v408h402v224H726" id="aJ"/><use transform="matrix(0.010850694444444444,0,0,0.010850694444444444,0,0)" xlink:href="#aJ" id="H"/><g id="I"><use transform="matrix(0.010850694444444444,0,0,0.010850694444444444,0,0)" xlink:href="#aw"/><use transform="matrix(0.010850694444444444,0,0,0.010850694444444444,13.335503472222221,0)" xlink:href="#as"/><use transform="matrix(0.010850694444444444,0,0,0.010850694444444444,26.671006944444443,0)" xlink:href="#an"/><use transform="matrix(0.010850694444444444,0,0,0.010850694444444444,40.006510416666664,0)" xlink:href="#aw"/><use transform="matrix(0.010850694444444444,0,0,0.010850694444444444,53.342013888888886,0)" xlink:href="#ap"/></g><g id="J"><use transform="matrix(0.010850694444444444,0,0,0.010850694444444444,0,0)" xlink:href="#aD"/><use transform="matrix(0.010850694444444444,0,0,0.010850694444444444,13.335503472222221,0)" xlink:href="#ax"/><use transform="matrix(0.010850694444444444,0,0,0.010850694444444444,26.671006944444443,0)" xlink:href="#as"/></g><g id="K"><use transform="matrix(0.010850694444444444,0,0,0.010850694444444444,0,0)" xlink:href="#aw"/><use transform="matrix(0.010850694444444444,0,0,0.010850694444444444,13.335503472222221,0)" xlink:href="#as"/><use transform="matrix(0.010850694444444444,0,0,0.010850694444444444,26.671006944444443,0)" xlink:href="#an"/><use transform="matrix(0.010850694444444444,0,0,0.010850694444444444,40.006510416666664,0)" xlink:href="#aw"/><use transform="matrix(0.010850694444444444,0,0,0.010850694444444444,53.342013888888886,0)" xlink:href="#ap"/></g><g id="L"><use transform="matrix(0.010850694444444444,0,0,0.010850694444444444,0,0)" xlink:href="#ar"/><use transform="matrix(0.010850694444444444,0,0,0.010850694444444444,13.335503472222221,0)" xlink:href="#ao"/><use transform="matrix(0.010850694444444444,0,0,0.010850694444444444,26.671006944444443,0)" xlink:href="#am"/><use transform="matrix(0.010850694444444444,0,0,0.010850694444444444,40.006510416666664,0)" xlink:href="#aE"/></g><g id="M"><use transform="matrix(0.010850694444444444,0,0,0.010850694444444444,0,0)" xlink:href="#am"/><use transform="matrix(0.010850694444444444,0,0,0.010850694444444444,13.335503472222221,0)" xlink:href="#aw"/><use transform="matrix(0.010850694444444444,0,0,0.010850694444444444,26.671006944444443,0)" xlink:href="#aA"/><use transform="matrix(0.010850694444444444,0,0,0.010850694444444444,40.006510416666664,0)" xlink:href="#aw"/><use transform="matrix(0.010850694444444444,0,0,0.010850694444444444,53.342013888888886,0)" xlink:href="#ar"/><use transform="matrix(0.010850694444444444,0,0,0.010850694444444444,66.67751736111111,0)" xlink:href="#an"/></g><g id="N"><use transform="matrix(0.010850694444444444,0,0,0.010850694444444444,0,0)" xlink:href="#av"/><use transform="matrix(0.010850694444444444,0,0,0.010850694444444444,13.335503472222221,0)" xlink:href="#aw"/><use transform="matrix(0.010850694444444444,0,0,0.010850694444444444,26.671006944444443,0)" xlink:href="#am"/><use transform="matrix(0.010850694444444444,0,0,0.010850694444444444,40.006510416666664,0)" xlink:href="#ax"/><use transform="matrix(0.010850694444444444,0,0,0.010850694444444444,53.342013888888886,0)" xlink:href="#ap"/><use transform="matrix(0.010850694444444444,0,0,0.010850694444444444,66.67751736111111,0)" xlink:href="#aw"/><use transform="matrix(0.010850694444444444,0,0,0.010850694444444444,80.01302083333334,0)" xlink:href="#av"/></g><g id="O"><use transform="matrix(0.010850694444444444,0,0,0.010850694444444444,0,0)" xlink:href="#aD"/><use transform="matrix(0.010850694444444444,0,0,0.010850694444444444,13.335503472222221,0)" xlink:href="#ap"/><use transform="matrix(0.010850694444444444,0,0,0.010850694444444444,26.671006944444443,0)" xlink:href="#au"/><use transform="matrix(0.010850694444444444,0,0,0.010850694444444444,40.006510416666664,0)" xlink:href="#av"/><use transform="matrix(0.010850694444444444,0,0,0.010850694444444444,53.342013888888886,0)" xlink:href="#aF"/><use transform="matrix(0.010850694444444444,0,0,0.010850694444444444,66.67751736111111,0)" xlink:href="#ar"/><use transform="matrix(0.010850694444444444,0,0,0.010850694444444444,80.01302083333334,0)" xlink:href="#an"/></g><path fill="#333" d="M881 0L558-557 431-415V0H136v-1349h295v599l436-599h343L750-770 1229 0H881" id="aK"/><g id="P"><use transform="matrix(0.010850694444444444,0,0,0.010850694444444444,0,0)" xlink:href="#ar"/><use transform="matrix(0.010850694444444444,0,0,0.010850694444444444,13.335503472222221,0)" xlink:href="#aE"/><use transform="matrix(0.010850694444444444,0,0,0.010850694444444444,26.671006944444443,0)" xlink:href="#aw"/><use transform="matrix(0.010850694444444444,0,0,0.010850694444444444,40.006510416666664,0)" xlink:href="#ar"/><use transform="matrix(0.010850694444444444,0,0,0.010850694444444444,53.342013888888886,0)" xlink:href="#aK"/></g><g id="Q"><use transform="matrix(0.010850694444444444,0,0,0.010850694444444444,0,0)" xlink:href="#aC"/><use transform="matrix(0.010850694444444444,0,0,0.010850694444444444,13.335503472222221,0)" xlink:href="#au"/><use transform="matrix(0.010850694444444444,0,0,0.010850694444444444,26.671006944444443,0)" xlink:href="#ap"/></g><g id="R"><use transform="matrix(0.010850694444444444,0,0,0.010850694444444444,0,0)" xlink:href="#am"/><use transform="matrix(0.010850694444444444,0,0,0.010850694444444444,13.335503472222221,0)" xlink:href="#aF"/><use transform="matrix(0.010850694444444444,0,0,0.010850694444444444,26.671006944444443,0)" xlink:href="#aC"/><use transform="matrix(0.010850694444444444,0,0,0.010850694444444444,40.006510416666664,0)" xlink:href="#aC"/><use transform="matrix(0.010850694444444444,0,0,0.010850694444444444,53.342013888888886,0)" xlink:href="#ax"/><use transform="matrix(0.010850694444444444,0,0,0.010850694444444444,66.67751736111111,0)" xlink:href="#ar"/><use transform="matrix(0.010850694444444444,0,0,0.010850694444444444,80.01302083333334,0)" xlink:href="#ax"/><use transform="matrix(0.010850694444444444,0,0,0.010850694444444444,93.34852430555557,0)" xlink:href="#aw"/><use transform="matrix(0.010850694444444444,0,0,0.010850694444444444,106.6840277777778,0)" xlink:href="#as"/><use transform="matrix(0.010850694444444444,0,0,0.010850694444444444,120.01953125000003,0)" xlink:href="#an"/></g><g id="S"><use transform="matrix(0.010850694444444444,0,0,0.010850694444444444,0,0)" xlink:href="#ao"/><use transform="matrix(0.010850694444444444,0,0,0.010850694444444444,13.335503472222221,0)" xlink:href="#ay"/><use transform="matrix(0.010850694444444444,0,0,0.010850694444444444,26.671006944444443,0)" xlink:href="#au"/><use transform="matrix(0.010850694444444444,0,0,0.010850694444444444,40.006510416666664,0)" xlink:href="#aF"/><use transform="matrix(0.010850694444444444,0,0,0.010850694444444444,53.342013888888886,0)" xlink:href="#as"/><use transform="matrix(0.010850694444444444,0,0,0.010850694444444444,66.67751736111111,0)" xlink:href="#an"/></g><g id="T"><use transform="matrix(0.010850694444444444,0,0,0.010850694444444444,0,0)" xlink:href="#ax"/><use transform="matrix(0.010850694444444444,0,0,0.010850694444444444,13.335503472222221,0)" xlink:href="#as"/><use transform="matrix(0.010850694444444444,0,0,0.010850694444444444,26.671006944444443,0)" xlink:href="#am"/><use transform="matrix(0.010850694444444444,0,0,0.010850694444444444,40.006510416666664,0)" xlink:href="#aw"/><use transform="matrix(0.010850694444444444,0,0,0.010850694444444444,53.342013888888886,0)" xlink:href="#an"/><use transform="matrix(0.010850694444444444,0,0,0.010850694444444444,66.67751736111111,0)" xlink:href="#aw"/><use transform="matrix(0.010850694444444444,0,0,0.010850694444444444,80.01302083333334,0)" xlink:href="#av"/></g><g id="U"><use transform="matrix(0.010850694444444444,0,0,0.010850694444444444,0,0)" xlink:href="#am"/><use transform="matrix(0.010850694444444444,0,0,0.010850694444444444,13.335503472222221,0)" xlink:href="#aF"/><use transform="matrix(0.010850694444444444,0,0,0.010850694444444444,26.671006944444443,0)" xlink:href="#aC"/><use transform="matrix(0.010850694444444444,0,0,0.010850694444444444,40.006510416666664,0)" xlink:href="#aC"/><use transform="matrix(0.010850694444444444,0,0,0.010850694444444444,53.342013888888886,0)" xlink:href="#ax"/><use transform="matrix(0.010850694444444444,0,0,0.010850694444444444,66.67751736111111,0)" xlink:href="#ar"/><use transform="matrix(0.010850694444444444,0,0,0.010850694444444444,80.01302083333334,0)" xlink:href="#ax"/><use transform="matrix(0.010850694444444444,0,0,0.010850694444444444,93.34852430555557,0)" xlink:href="#aw"/><use transform="matrix(0.010850694444444444,0,0,0.010850694444444444,106.6840277777778,0)" xlink:href="#as"/><use transform="matrix(0.010850694444444444,0,0,0.010850694444444444,120.01953125000003,0)" xlink:href="#an"/></g><g id="V"><use transform="matrix(0.010850694444444444,0,0,0.010850694444444444,0,0)" xlink:href="#ax"/><use transform="matrix(0.010850694444444444,0,0,0.010850694444444444,13.335503472222221,0)" xlink:href="#as"/><use transform="matrix(0.010850694444444444,0,0,0.010850694444444444,26.671006944444443,0)" xlink:href="#am"/><use transform="matrix(0.010850694444444444,0,0,0.010850694444444444,40.006510416666664,0)" xlink:href="#aF"/><use transform="matrix(0.010850694444444444,0,0,0.010850694444444444,53.342013888888886,0)" xlink:href="#aC"/><use transform="matrix(0.010850694444444444,0,0,0.010850694444444444,66.67751736111111,0)" xlink:href="#aC"/><use transform="matrix(0.010850694444444444,0,0,0.010850694444444444,80.01302083333334,0)" xlink:href="#ax"/><use transform="matrix(0.010850694444444444,0,0,0.010850694444444444,93.34852430555557,0)" xlink:href="#ar"/><use transform="matrix(0.010850694444444444,0,0,0.010850694444444444,106.6840277777778,0)" xlink:href="#ax"/><use transform="matrix(0.010850694444444444,0,0,0.010850694444444444,120.01953125000003,0)" xlink:href="#aw"/><use transform="matrix(0.010850694444444444,0,0,0.010850694444444444,133.35503472222226,0)" xlink:href="#as"/><use transform="matrix(0.010850694444444444,0,0,0.010850694444444444,146.69053819444449,0)" xlink:href="#an"/></g><g id="W"><use transform="matrix(0.010850694444444444,0,0,0.010850694444444444,0,0)" xlink:href="#aC"/><use transform="matrix(0.010850694444444444,0,0,0.010850694444444444,13.335503472222221,0)" xlink:href="#aF"/><use transform="matrix(0.010850694444444444,0,0,0.010850694444444444,26.671006944444443,0)" xlink:href="#as"/><use transform="matrix(0.010850694444444444,0,0,0.010850694444444444,40.006510416666664,0)" xlink:href="#av"/><use transform="matrix(0.010850694444444444,0,0,0.010850694444444444,53.342013888888886,0)" xlink:href="#am"/></g><g id="X"><use transform="matrix(0.010850694444444444,0,0,0.010850694444444444,0,0)" xlink:href="#av"/><use transform="matrix(0.010850694444444444,0,0,0.010850694444444444,13.335503472222221,0)" xlink:href="#ax"/><use transform="matrix(0.010850694444444444,0,0,0.010850694444444444,26.671006944444443,0)" xlink:href="#am"/><use transform="matrix(0.010850694444444444,0,0,0.010850694444444444,40.006510416666664,0)" xlink:href="#aD"/><use transform="matrix(0.010850694444444444,0,0,0.010850694444444444,53.342013888888886,0)" xlink:href="#aw"/><use transform="matrix(0.010850694444444444,0,0,0.010850694444444444,66.67751736111111,0)" xlink:href="#as"/><use transform="matrix(0.010850694444444444,0,0,0.010850694444444444,80.01302083333334,0)" xlink:href="#am"/><use transform="matrix(0.010850694444444444,0,0,0.010850694444444444,93.34852430555557,0)" xlink:href="#aw"/></g><g id="Y"><use transform="matrix(0.010850694444444444,0,0,0.010850694444444444,0,0)" xlink:href="#aD"/><use transform="matrix(0.010850694444444444,0,0,0.010850694444444444,13.335503472222221,0)" xlink:href="#ap"/><use transform="matrix(0.010850694444444444,0,0,0.010850694444444444,26.671006944444443,0)" xlink:href="#au"/><use transform="matrix(0.010850694444444444,0,0,0.010850694444444444,40.006510416666664,0)" xlink:href="#av"/><use transform="matrix(0.010850694444444444,0,0,0.010850694444444444,53.342013888888886,0)" xlink:href="#aF"/><use transform="matrix(0.010850694444444444,0,0,0.010850694444444444,66.67751736111111,0)" xlink:href="#ar"/><use transform="matrix(0.010850694444444444,0,0,0.010850694444444444,80.01302083333334,0)" xlink:href="#an"/></g><g id="Z"><use transform="matrix(0.010850694444444444,0,0,0.010850694444444444,0,0)" xlink:href="#aD"/><use transform="matrix(0.010850694444444444,0,0,0.010850694444444444,13.335503472222221,0)" xlink:href="#ap"/><use transform="matrix(0.010850694444444444,0,0,0.010850694444444444,26.671006944444443,0)" xlink:href="#au"/><use transform="matrix(0.010850694444444444,0,0,0.010850694444444444,40.006510416666664,0)" xlink:href="#av"/><use transform="matrix(0.010850694444444444,0,0,0.010850694444444444,53.342013888888886,0)" xlink:href="#aF"/><use transform="matrix(0.010850694444444444,0,0,0.010850694444444444,66.67751736111111,0)" xlink:href="#ar"/><use transform="matrix(0.010850694444444444,0,0,0.010850694444444444,80.01302083333334,0)" xlink:href="#an"/></g><g id="aa"><use transform="matrix(0.010850694444444444,0,0,0.010850694444444444,0,0)" xlink:href="#ap"/><use transform="matrix(0.010850694444444444,0,0,0.010850694444444444,13.335503472222221,0)" xlink:href="#aw"/><use transform="matrix(0.010850694444444444,0,0,0.010850694444444444,26.671006944444443,0)" xlink:href="#an"/><use transform="matrix(0.010850694444444444,0,0,0.010850694444444444,40.006510416666664,0)" xlink:href="#aF"/><use transform="matrix(0.010850694444444444,0,0,0.010850694444444444,53.342013888888886,0)" xlink:href="#ap"/><use transform="matrix(0.010850694444444444,0,0,0.010850694444444444,66.67751736111111,0)" xlink:href="#as"/></g><g id="ab"><use transform="matrix(0.010850694444444444,0,0,0.010850694444444444,0,0)" xlink:href="#ap"/><use transform="matrix(0.010850694444444444,0,0,0.010850694444444444,13.335503472222221,0)" xlink:href="#aw"/><use transform="matrix(0.010850694444444444,0,0,0.010850694444444444,26.671006944444443,0)" xlink:href="#an"/><use transform="matrix(0.010850694444444444,0,0,0.010850694444444444,40.006510416666664,0)" xlink:href="#aF"/><use transform="matrix(0.010850694444444444,0,0,0.010850694444444444,53.342013888888886,0)" xlink:href="#ap"/><use transform="matrix(0.010850694444444444,0,0,0.010850694444444444,66.67751736111111,0)" xlink:href="#as"/></g><g id="ac"><use transform="matrix(0.010850694444444444,0,0,0.010850694444444444,0,0)" xlink:href="#ax"/><use transform="matrix(0.010850694444444444,0,0,0.010850694444444444,13.335503472222221,0)" xlink:href="#as"/><use transform="matrix(0.010850694444444444,0,0,0.010850694444444444,26.671006944444443,0)" xlink:href="#ar"/><use transform="matrix(0.010850694444444444,0,0,0.010850694444444444,40.006510416666664,0)" xlink:href="#aw"/><use transform="matrix(0.010850694444444444,0,0,0.010850694444444444,53.342013888888886,0)" xlink:href="#as"/><use transform="matrix(0.010850694444444444,0,0,0.010850694444444444,66.67751736111111,0)" xlink:href="#an"/><use transform="matrix(0.010850694444444444,0,0,0.010850694444444444,80.01302083333334,0)" xlink:href="#ax"/><use transform="matrix(0.010850694444444444,0,0,0.010850694444444444,93.34852430555557,0)" xlink:href="#aG"/><use transform="matrix(0.010850694444444444,0,0,0.010850694444444444,106.6840277777778,0)" xlink:href="#aw"/><use transform="matrix(0.010850694444444444,0,0,0.010850694444444444,120.01953125000003,0)" xlink:href="#am"/></g><g id="ad"><use transform="matrix(0.010850694444444444,0,0,0.010850694444444444,0,0)" xlink:href="#aF"/><use transform="matrix(0.010850694444444444,0,0,0.010850694444444444,13.335503472222221,0)" xlink:href="#aD"/><use transform="matrix(0.010850694444444444,0,0,0.010850694444444444,26.671006944444443,0)" xlink:href="#av"/><use transform="matrix(0.010850694444444444,0,0,0.010850694444444444,40.006510416666664,0)" xlink:href="#ao"/><use transform="matrix(0.010850694444444444,0,0,0.010850694444444444,53.342013888888886,0)" xlink:href="#an"/><use transform="matrix(0.010850694444444444,0,0,0.010850694444444444,66.67751736111111,0)" xlink:href="#aw"/></g><g id="ae"><use transform="matrix(0.010850694444444444,0,0,0.010850694444444444,0,0)" xlink:href="#ar"/><use transform="matrix(0.010850694444444444,0,0,0.010850694444444444,13.335503472222221,0)" xlink:href="#au"/><use transform="matrix(0.010850694444444444,0,0,0.010850694444444444,26.671006944444443,0)" xlink:href="#aF"/><use transform="matrix(0.010850694444444444,0,0,0.010850694444444444,40.006510416666664,0)" xlink:href="#as"/><use transform="matrix(0.010850694444444444,0,0,0.010850694444444444,53.342013888888886,0)" xlink:href="#an"/><use transform="matrix(0.010850694444444444,0,0,0.010850694444444444,66.67751736111111,0)" xlink:href="#aw"/><use transform="matrix(0.010850694444444444,0,0,0.010850694444444444,80.01302083333334,0)" xlink:href="#ap"/><use transform="matrix(0.010850694444444444,0,0,0.010850694444444444,93.34852430555557,0)" xlink:href="#am"/></g><g id="af"><use transform="matrix(0.010850694444444444,0,0,0.010850694444444444,0,0)" xlink:href="#au"/><use transform="matrix(0.010850694444444444,0,0,0.010850694444444444,13.335503472222221,0)" xlink:href="#an"/><use transform="matrix(0.010850694444444444,0,0,0.010850694444444444,26.671006944444443,0)" xlink:href="#aE"/><use transform="matrix(0.010850694444444444,0,0,0.010850694444444444,40.006510416666664,0)" xlink:href="#aw"/><use transform="matrix(0.010850694444444444,0,0,0.010850694444444444,53.342013888888886,0)" xlink:href="#ap"/></g><g id="ag"><use transform="matrix(0.010850694444444444,0,0,0.010850694444444444,0,0)" xlink:href="#ap"/><use transform="matrix(0.010850694444444444,0,0,0.010850694444444444,13.335503472222221,0)" xlink:href="#aw"/><use transform="matrix(0.010850694444444444,0,0,0.010850694444444444,26.671006944444443,0)" xlink:href="#aH"/><use transform="matrix(0.010850694444444444,0,0,0.010850694444444444,40.006510416666664,0)" xlink:href="#ax"/><use transform="matrix(0.010850694444444444,0,0,0.010850694444444444,53.342013888888886,0)" xlink:href="#am"/><use transform="matrix(0.010850694444444444,0,0,0.010850694444444444,66.67751736111111,0)" xlink:href="#an"/><use transform="matrix(0.010850694444444444,0,0,0.010850694444444444,80.01302083333334,0)" xlink:href="#aw"/><use transform="matrix(0.010850694444444444,0,0,0.010850694444444444,93.34852430555557,0)" xlink:href="#ap"/><use transform="matrix(0.010850694444444444,0,0,0.010850694444444444,106.6840277777778,0)" xlink:href="#am"/></g><g id="ah"><use transform="matrix(0.010850694444444444,0,0,0.010850694444444444,0,0)" xlink:href="#au"/><use transform="matrix(0.010850694444444444,0,0,0.010850694444444444,13.335503472222221,0)" xlink:href="#aD"/><use transform="matrix(0.010850694444444444,0,0,0.010850694444444444,26.671006944444443,0)" xlink:href="#aw"/><use transform="matrix(0.010850694444444444,0,0,0.010850694444444444,40.006510416666664,0)" xlink:href="#ap"/><use transform="matrix(0.010850694444444444,0,0,0.010850694444444444,53.342013888888886,0)" xlink:href="#ao"/><use transform="matrix(0.010850694444444444,0,0,0.010850694444444444,66.67751736111111,0)" xlink:href="#an"/><use transform="matrix(0.010850694444444444,0,0,0.010850694444444444,80.01302083333334,0)" xlink:href="#ax"/><use transform="matrix(0.010850694444444444,0,0,0.010850694444444444,93.34852430555557,0)" xlink:href="#au"/><use transform="matrix(0.010850694444444444,0,0,0.010850694444444444,106.6840277777778,0)" xlink:href="#as"/></g><path fill="#333" d="M240-174c0 40-23 61-54 70L253 0h-59l-57-94H76V0H24v-248c93 4 217-23 216 74zM76-134c48-2 112 12 112-38 0-48-66-32-112-35v73" id="aL"/><path fill="#333" d="M24 0v-248h195v40H76v63h132v40H76v65h150V0H24" id="aM"/><path fill="#333" d="M199 0l-22-63H83L61 0H9l90-248h61L250 0h-51zm-33-102l-36-108c-10 38-24 72-36 108h72" id="aN"/><path fill="#333" d="M24-248c120-7 223 5 221 122C244-46 201 0 124 0H24v-248zM76-40c74 7 117-18 117-86 0-67-45-88-117-82v168" id="aO"/><path fill="#333" d="M146-102V0H94v-102L6-248h54l60 105 60-105h54" id="aP"/><g id="ai"><use transform="matrix(0.04938271604938272,0,0,0.04938271604938272,0,0)" xlink:href="#aL"/><use transform="matrix(0.04938271604938272,0,0,0.04938271604938272,12.790123456790125,0)" xlink:href="#aM"/><use transform="matrix(0.04938271604938272,0,0,0.04938271604938272,24.641975308641978,0)" xlink:href="#aN"/><use transform="matrix(0.04938271604938272,0,0,0.04938271604938272,37.4320987654321,0)" xlink:href="#aO"/><use transform="matrix(0.04938271604938272,0,0,0.04938271604938272,50.22222222222223,0)" xlink:href="#aP"/></g><path fill="#333" d="M76-208v77h127v40H76V0H24v-248h183v40H76" id="aQ"/><path fill="#333" d="M140-251c80 0 125 45 125 126S219 4 139 4C58 4 15-44 15-125s44-126 125-126zm-1 214c52 0 73-35 73-88 0-50-21-86-72-86-52 0-73 35-73 86s22 88 72 88" id="aR"/><g id="aj"><use transform="matrix(0.04938271604938272,0,0,0.04938271604938272,0,0)" xlink:href="#aQ"/><use transform="matrix(0.04938271604938272,0,0,0.04938271604938272,10.814814814814815,0)" xlink:href="#aR"/><use transform="matrix(0.04938271604938272,0,0,0.04938271604938272,24.641975308641975,0)" xlink:href="#aL"/></g><path fill="#333" d="M175 0L67-191c6 58 2 128 3 191H24v-248h59L193-55c-6-58-2-129-3-193h46V0h-61" id="aS"/><path fill="#333" d="M182 0l-62-99L58 0H3l86-130-79-118h55l55 88 55-88h55l-75 118L237 0h-55" id="aT"/><path fill="#333" d="M136-208V0H84v-208H4v-40h212v40h-80" id="aU"/><g id="ak"><use transform="matrix(0.04938271604938272,0,0,0.04938271604938272,0,0)" xlink:href="#aS"/><use transform="matrix(0.04938271604938272,0,0,0.04938271604938272,12.790123456790125,0)" xlink:href="#aM"/><use transform="matrix(0.04938271604938272,0,0,0.04938271604938272,24.641975308641978,0)" xlink:href="#aT"/><use transform="matrix(0.04938271604938272,0,0,0.04938271604938272,36.49382716049383,0)" xlink:href="#aU"/></g><path fill="#333" d="M169-182c-1-43-94-46-97-3 18 66 151 10 154 114 3 95-165 93-204 36-6-8-10-19-12-30l50-8c3 46 112 56 116 5-17-69-150-10-154-114-4-87 153-88 188-35 5 8 8 18 10 28" id="aV"/><path fill="#333" d="M67-125c0 53 21 87 73 88 37 1 54-22 65-47l45 17C233-25 199 4 140 4 58 4 20-42 15-125 8-235 124-281 211-232c18 10 29 29 36 50l-46 12c-8-25-30-41-62-41-52 0-71 34-72 86" id="aW"/><path fill="#333" d="M24 0v-248h52V0H24" id="aX"/><g id="al"><use transform="matrix(0.04938271604938272,0,0,0.04938271604938272,0,0)" xlink:href="#aU"/><use transform="matrix(0.04938271604938272,0,0,0.04938271604938272,10.814814814814815,0)" xlink:href="#aL"/><use transform="matrix(0.04938271604938272,0,0,0.04938271604938272,23.60493827160494,0)" xlink:href="#aN"/><use transform="matrix(0.04938271604938272,0,0,0.04938271604938272,36.39506172839506,0)" xlink:href="#aS"/><use transform="matrix(0.04938271604938272,0,0,0.04938271604938272,49.18518518518519,0)" xlink:href="#aV"/><use transform="matrix(0.04938271604938272,0,0,0.04938271604938272,61.037037037037045,0)" xlink:href="#aN"/><use transform="matrix(0.04938271604938272,0,0,0.04938271604938272,73.82716049382717,0)" xlink:href="#aW"/><use transform="matrix(0.04938271604938272,0,0,0.04938271604938272,86.61728395061729,0)" xlink:href="#aU"/><use transform="matrix(0.04938271604938272,0,0,0.04938271604938272,97.4320987654321,0)" xlink:href="#aX"/><use transform="matrix(0.04938271604938272,0,0,0.04938271604938272,102.37037037037038,0)" xlink:href="#aR"/><use transform="matrix(0.04938271604938272,0,0,0.04938271604938272,116.19753086419755,0)" xlink:href="#aS"/></g></defs></g></svg>